ISO-10303-21;
HEADER;
/* Generated by software containing ST-Developer
 * from STEP Tools, Inc. (www.steptools.com) 
 */
/* OPTION: using custom renumber hook */

FILE_DESCRIPTION(
/* description */ ('STEP AP242 Edition 2',
'CAx-IF Rec.Pracs.---Representation and Presentation of Product Manufa
cturing Information (PMI)---4.0---2014-10-13',
'CAx-IF Rec.Pracs.---3D Tessellated Geometry---0.4---2014-09-14','2;1',
'CAx-IF Rec.Pracs.---User Defined Attributes---1.5---2016-08-15'),
/* implementation_level */ '2;1');

FILE_NAME(
/* name */ 'Part Studio 2 - Part 3',
/* time_stamp */ '2026-10-05T08:23:17Z',
/* author */ (''),
/* organization */ (''),
/* preprocessor_version */ 'ST-DEVELOPER v20',
/* originating_system */ 'ONSHAPE BY PTC INC, 1.221',
/* authorisation */ '  ');

FILE_SCHEMA (('AP242_MANAGED_MODEL_BASED_3D_ENGINEERING_MIM_LF { 1 0 10303 442 3 1 4 }'));
ENDSEC;

DATA;
#10=SHAPE_REPRESENTATION_RELATIONSHIP('','',#1129,#11);
#11=ADVANCED_BREP_SHAPE_REPRESENTATION('',(#1127),#1843);
#12=SPHERICAL_SURFACE('',#1183,0.001);
#13=SPHERICAL_SURFACE('',#1189,0.001);
#14=SPHERICAL_SURFACE('',#1199,0.001);
#15=SPHERICAL_SURFACE('',#1201,0.001);
#16=ELLIPSE('',#1175,0.00141421356237309,0.001);
#17=ELLIPSE('',#1179,0.00141421356237309,0.001);
#18=ELLIPSE('',#1186,0.00141421356237309,0.001);
#19=ELLIPSE('',#1188,0.00141421356237309,0.001);
#20=TOROIDAL_SURFACE('',#1172,0.003,0.001);
#21=TOROIDAL_SURFACE('',#1173,0.003,0.001);
#22=CYLINDRICAL_SURFACE('',#1166,0.002);
#23=CYLINDRICAL_SURFACE('',#1168,0.002);
#24=CYLINDRICAL_SURFACE('',#1170,0.002);
#25=CYLINDRICAL_SURFACE('',#1171,0.002);
#26=CYLINDRICAL_SURFACE('',#1174,0.001);
#27=CYLINDRICAL_SURFACE('',#1177,0.001);
#28=CYLINDRICAL_SURFACE('',#1180,0.001);
#29=CYLINDRICAL_SURFACE('',#1185,0.001);
#30=CYLINDRICAL_SURFACE('',#1187,0.001);
#31=CYLINDRICAL_SURFACE('',#1191,0.001);
#32=CYLINDRICAL_SURFACE('',#1193,0.001);
#33=CYLINDRICAL_SURFACE('',#1195,0.001);
#34=CYLINDRICAL_SURFACE('',#1197,0.001);
#35=CYLINDRICAL_SURFACE('',#1203,0.001);
#36=CYLINDRICAL_SURFACE('',#1217,0.001932);
#37=CYLINDRICAL_SURFACE('',#1218,0.001932);
#38=CYLINDRICAL_SURFACE('',#1223,0.001932);
#39=CYLINDRICAL_SURFACE('',#1224,0.001932);
#40=CIRCLE('',#1135,0.001932);
#41=CIRCLE('',#1136,0.001932);
#42=CIRCLE('',#1137,0.003);
#43=CIRCLE('',#1138,0.003);
#44=CIRCLE('',#1140,0.003);
#45=CIRCLE('',#1142,0.001932);
#46=CIRCLE('',#1143,0.001932);
#47=CIRCLE('',#1144,0.002);
#48=CIRCLE('',#1145,0.002);
#49=CIRCLE('',#1148,0.003);
#50=CIRCLE('',#1152,0.001932);
#51=CIRCLE('',#1153,0.001932);
#52=CIRCLE('',#1154,0.002);
#53=CIRCLE('',#1155,0.002);
#54=CIRCLE('',#1157,0.001932);
#55=CIRCLE('',#1158,0.001932);
#56=CIRCLE('',#1159,0.002);
#57=CIRCLE('',#1160,0.002);
#58=CIRCLE('',#1167,0.002);
#59=CIRCLE('',#1169,0.002);
#60=CIRCLE('',#1176,0.001);
#61=CIRCLE('',#1178,0.001);
#62=CIRCLE('',#1181,0.001);
#63=CIRCLE('',#1182,0.001);
#64=CIRCLE('',#1184,0.001);
#65=CIRCLE('',#1190,0.001);
#66=CIRCLE('',#1192,0.001);
#67=CIRCLE('',#1194,0.001);
#68=CIRCLE('',#1196,0.001);
#69=CIRCLE('',#1198,0.001);
#70=CIRCLE('',#1200,0.001);
#71=CIRCLE('',#1202,0.001);
#72=ORIENTED_EDGE('',*,*,#364,.F.);
#73=ORIENTED_EDGE('',*,*,#365,.T.);
#74=ORIENTED_EDGE('',*,*,#366,.T.);
#75=ORIENTED_EDGE('',*,*,#367,.T.);
#76=ORIENTED_EDGE('',*,*,#368,.T.);
#77=ORIENTED_EDGE('',*,*,#369,.T.);
#78=ORIENTED_EDGE('',*,*,#370,.T.);
#79=ORIENTED_EDGE('',*,*,#371,.F.);
#80=ORIENTED_EDGE('',*,*,#372,.F.);
#81=ORIENTED_EDGE('',*,*,#373,.T.);
#82=ORIENTED_EDGE('',*,*,#374,.F.);
#83=ORIENTED_EDGE('',*,*,#375,.F.);
#84=ORIENTED_EDGE('',*,*,#376,.F.);
#85=ORIENTED_EDGE('',*,*,#377,.T.);
#86=ORIENTED_EDGE('',*,*,#378,.T.);
#87=ORIENTED_EDGE('',*,*,#379,.T.);
#88=ORIENTED_EDGE('',*,*,#380,.F.);
#89=ORIENTED_EDGE('',*,*,#381,.T.);
#90=ORIENTED_EDGE('',*,*,#382,.T.);
#91=ORIENTED_EDGE('',*,*,#383,.F.);
#92=ORIENTED_EDGE('',*,*,#384,.F.);
#93=ORIENTED_EDGE('',*,*,#385,.T.);
#94=ORIENTED_EDGE('',*,*,#386,.T.);
#95=ORIENTED_EDGE('',*,*,#387,.F.);
#96=ORIENTED_EDGE('',*,*,#388,.T.);
#97=ORIENTED_EDGE('',*,*,#389,.T.);
#98=ORIENTED_EDGE('',*,*,#390,.T.);
#99=ORIENTED_EDGE('',*,*,#391,.T.);
#100=ORIENTED_EDGE('',*,*,#392,.F.);
#101=ORIENTED_EDGE('',*,*,#393,.T.);
#102=ORIENTED_EDGE('',*,*,#394,.T.);
#103=ORIENTED_EDGE('',*,*,#395,.T.);
#104=ORIENTED_EDGE('',*,*,#396,.F.);
#105=ORIENTED_EDGE('',*,*,#397,.T.);
#106=ORIENTED_EDGE('',*,*,#398,.T.);
#107=ORIENTED_EDGE('',*,*,#399,.F.);
#108=ORIENTED_EDGE('',*,*,#400,.F.);
#109=ORIENTED_EDGE('',*,*,#401,.F.);
#110=ORIENTED_EDGE('',*,*,#402,.T.);
#111=ORIENTED_EDGE('',*,*,#403,.T.);
#112=ORIENTED_EDGE('',*,*,#404,.T.);
#113=ORIENTED_EDGE('',*,*,#405,.T.);
#114=ORIENTED_EDGE('',*,*,#406,.T.);
#115=ORIENTED_EDGE('',*,*,#407,.T.);
#116=ORIENTED_EDGE('',*,*,#408,.T.);
#117=ORIENTED_EDGE('',*,*,#409,.T.);
#118=ORIENTED_EDGE('',*,*,#410,.T.);
#119=ORIENTED_EDGE('',*,*,#411,.F.);
#120=ORIENTED_EDGE('',*,*,#412,.T.);
#121=ORIENTED_EDGE('',*,*,#413,.T.);
#122=ORIENTED_EDGE('',*,*,#414,.F.);
#123=ORIENTED_EDGE('',*,*,#415,.T.);
#124=ORIENTED_EDGE('',*,*,#416,.T.);
#125=ORIENTED_EDGE('',*,*,#417,.T.);
#126=ORIENTED_EDGE('',*,*,#418,.T.);
#127=ORIENTED_EDGE('',*,*,#419,.T.);
#128=ORIENTED_EDGE('',*,*,#420,.F.);
#129=ORIENTED_EDGE('',*,*,#377,.F.);
#130=ORIENTED_EDGE('',*,*,#421,.T.);
#131=ORIENTED_EDGE('',*,*,#422,.T.);
#132=ORIENTED_EDGE('',*,*,#423,.T.);
#133=ORIENTED_EDGE('',*,*,#424,.T.);
#134=ORIENTED_EDGE('',*,*,#425,.T.);
#135=ORIENTED_EDGE('',*,*,#426,.F.);
#136=ORIENTED_EDGE('',*,*,#421,.F.);
#137=ORIENTED_EDGE('',*,*,#376,.T.);
#138=ORIENTED_EDGE('',*,*,#427,.T.);
#139=ORIENTED_EDGE('',*,*,#428,.T.);
#140=ORIENTED_EDGE('',*,*,#429,.T.);
#141=ORIENTED_EDGE('',*,*,#430,.T.);
#142=ORIENTED_EDGE('',*,*,#431,.T.);
#143=ORIENTED_EDGE('',*,*,#432,.T.);
#144=ORIENTED_EDGE('',*,*,#433,.F.);
#145=ORIENTED_EDGE('',*,*,#434,.F.);
#146=ORIENTED_EDGE('',*,*,#378,.F.);
#147=ORIENTED_EDGE('',*,*,#420,.T.);
#148=ORIENTED_EDGE('',*,*,#435,.T.);
#149=ORIENTED_EDGE('',*,*,#436,.T.);
#150=ORIENTED_EDGE('',*,*,#426,.T.);
#151=ORIENTED_EDGE('',*,*,#437,.T.);
#152=ORIENTED_EDGE('',*,*,#435,.F.);
#153=ORIENTED_EDGE('',*,*,#419,.F.);
#154=ORIENTED_EDGE('',*,*,#438,.F.);
#155=ORIENTED_EDGE('',*,*,#439,.F.);
#156=ORIENTED_EDGE('',*,*,#440,.T.);
#157=ORIENTED_EDGE('',*,*,#441,.T.);
#158=ORIENTED_EDGE('',*,*,#442,.F.);
#159=ORIENTED_EDGE('',*,*,#443,.F.);
#160=ORIENTED_EDGE('',*,*,#444,.T.);
#161=ORIENTED_EDGE('',*,*,#445,.T.);
#162=ORIENTED_EDGE('',*,*,#446,.T.);
#163=ORIENTED_EDGE('',*,*,#447,.T.);
#164=ORIENTED_EDGE('',*,*,#448,.F.);
#165=ORIENTED_EDGE('',*,*,#449,.F.);
#166=ORIENTED_EDGE('',*,*,#450,.T.);
#167=ORIENTED_EDGE('',*,*,#451,.T.);
#168=ORIENTED_EDGE('',*,*,#452,.F.);
#169=ORIENTED_EDGE('',*,*,#453,.F.);
#170=ORIENTED_EDGE('',*,*,#454,.T.);
#171=ORIENTED_EDGE('',*,*,#455,.T.);
#172=ORIENTED_EDGE('',*,*,#456,.T.);
#173=ORIENTED_EDGE('',*,*,#457,.T.);
#174=ORIENTED_EDGE('',*,*,#458,.T.);
#175=ORIENTED_EDGE('',*,*,#427,.F.);
#176=ORIENTED_EDGE('',*,*,#379,.F.);
#177=ORIENTED_EDGE('',*,*,#434,.T.);
#178=ORIENTED_EDGE('',*,*,#433,.T.);
#179=ORIENTED_EDGE('',*,*,#459,.T.);
#180=ORIENTED_EDGE('',*,*,#422,.F.);
#181=ORIENTED_EDGE('',*,*,#458,.F.);
#182=ORIENTED_EDGE('',*,*,#380,.T.);
#183=ORIENTED_EDGE('',*,*,#460,.T.);
#184=ORIENTED_EDGE('',*,*,#385,.F.);
#185=ORIENTED_EDGE('',*,*,#461,.F.);
#186=ORIENTED_EDGE('',*,*,#461,.T.);
#187=ORIENTED_EDGE('',*,*,#384,.T.);
#188=ORIENTED_EDGE('',*,*,#462,.F.);
#189=ORIENTED_EDGE('',*,*,#381,.F.);
#190=ORIENTED_EDGE('',*,*,#462,.T.);
#191=ORIENTED_EDGE('',*,*,#387,.T.);
#192=ORIENTED_EDGE('',*,*,#463,.F.);
#193=ORIENTED_EDGE('',*,*,#382,.F.);
#194=ORIENTED_EDGE('',*,*,#383,.T.);
#195=ORIENTED_EDGE('',*,*,#463,.T.);
#196=ORIENTED_EDGE('',*,*,#386,.F.);
#197=ORIENTED_EDGE('',*,*,#460,.F.);
#198=ORIENTED_EDGE('',*,*,#464,.T.);
#199=ORIENTED_EDGE('',*,*,#418,.F.);
#200=ORIENTED_EDGE('',*,*,#465,.T.);
#201=ORIENTED_EDGE('',*,*,#417,.F.);
#202=ORIENTED_EDGE('',*,*,#457,.F.);
#203=ORIENTED_EDGE('',*,*,#449,.T.);
#204=ORIENTED_EDGE('',*,*,#456,.F.);
#205=ORIENTED_EDGE('',*,*,#448,.T.);
#206=ORIENTED_EDGE('',*,*,#404,.F.);
#207=ORIENTED_EDGE('',*,*,#409,.F.);
#208=ORIENTED_EDGE('',*,*,#464,.F.);
#209=ORIENTED_EDGE('',*,*,#429,.F.);
#210=ORIENTED_EDGE('',*,*,#402,.F.);
#211=ORIENTED_EDGE('',*,*,#465,.F.);
#212=ORIENTED_EDGE('',*,*,#466,.F.);
#213=ORIENTED_EDGE('',*,*,#425,.F.);
#214=ORIENTED_EDGE('',*,*,#467,.F.);
#215=ORIENTED_EDGE('',*,*,#405,.F.);
#216=ORIENTED_EDGE('',*,*,#408,.F.);
#217=ORIENTED_EDGE('',*,*,#468,.F.);
#218=ORIENTED_EDGE('',*,*,#423,.F.);
#219=ORIENTED_EDGE('',*,*,#469,.F.);
#220=ORIENTED_EDGE('',*,*,#446,.F.);
#221=ORIENTED_EDGE('',*,*,#470,.F.);
#222=ORIENTED_EDGE('',*,*,#424,.F.);
#223=ORIENTED_EDGE('',*,*,#471,.F.);
#224=ORIENTED_EDGE('',*,*,#391,.F.);
#225=ORIENTED_EDGE('',*,*,#467,.T.);
#226=ORIENTED_EDGE('',*,*,#470,.T.);
#227=ORIENTED_EDGE('',*,*,#472,.F.);
#228=ORIENTED_EDGE('',*,*,#403,.F.);
#229=ORIENTED_EDGE('',*,*,#428,.F.);
#230=ORIENTED_EDGE('',*,*,#473,.F.);
#231=ORIENTED_EDGE('',*,*,#437,.F.);
#232=ORIENTED_EDGE('',*,*,#466,.T.);
#233=ORIENTED_EDGE('',*,*,#410,.F.);
#234=ORIENTED_EDGE('',*,*,#469,.T.);
#235=ORIENTED_EDGE('',*,*,#459,.F.);
#236=ORIENTED_EDGE('',*,*,#474,.F.);
#237=ORIENTED_EDGE('',*,*,#447,.F.);
#238=ORIENTED_EDGE('',*,*,#471,.T.);
#239=ORIENTED_EDGE('',*,*,#468,.T.);
#240=ORIENTED_EDGE('',*,*,#475,.F.);
#241=ORIENTED_EDGE('',*,*,#472,.T.);
#242=ORIENTED_EDGE('',*,*,#390,.F.);
#243=ORIENTED_EDGE('',*,*,#476,.F.);
#244=ORIENTED_EDGE('',*,*,#406,.F.);
#245=ORIENTED_EDGE('',*,*,#430,.F.);
#246=ORIENTED_EDGE('',*,*,#407,.F.);
#247=ORIENTED_EDGE('',*,*,#477,.F.);
#248=ORIENTED_EDGE('',*,*,#436,.F.);
#249=ORIENTED_EDGE('',*,*,#473,.T.);
#250=ORIENTED_EDGE('',*,*,#474,.T.);
#251=ORIENTED_EDGE('',*,*,#432,.F.);
#252=ORIENTED_EDGE('',*,*,#478,.F.);
#253=ORIENTED_EDGE('',*,*,#444,.F.);
#254=ORIENTED_EDGE('',*,*,#475,.T.);
#255=ORIENTED_EDGE('',*,*,#445,.F.);
#256=ORIENTED_EDGE('',*,*,#479,.F.);
#257=ORIENTED_EDGE('',*,*,#388,.F.);
#258=ORIENTED_EDGE('',*,*,#477,.T.);
#259=ORIENTED_EDGE('',*,*,#476,.T.);
#260=ORIENTED_EDGE('',*,*,#480,.F.);
#261=ORIENTED_EDGE('',*,*,#479,.T.);
#262=ORIENTED_EDGE('',*,*,#478,.T.);
#263=ORIENTED_EDGE('',*,*,#481,.F.);
#264=ORIENTED_EDGE('',*,*,#480,.T.);
#265=ORIENTED_EDGE('',*,*,#389,.F.);
#266=ORIENTED_EDGE('',*,*,#481,.T.);
#267=ORIENTED_EDGE('',*,*,#431,.F.);
#268=ORIENTED_EDGE('',*,*,#482,.T.);
#269=ORIENTED_EDGE('',*,*,#483,.T.);
#270=ORIENTED_EDGE('',*,*,#393,.F.);
#271=ORIENTED_EDGE('',*,*,#484,.F.);
#272=ORIENTED_EDGE('',*,*,#484,.T.);
#273=ORIENTED_EDGE('',*,*,#392,.T.);
#274=ORIENTED_EDGE('',*,*,#485,.F.);
#275=ORIENTED_EDGE('',*,*,#486,.F.);
#276=ORIENTED_EDGE('',*,*,#487,.T.);
#277=ORIENTED_EDGE('',*,*,#485,.T.);
#278=ORIENTED_EDGE('',*,*,#395,.F.);
#279=ORIENTED_EDGE('',*,*,#488,.F.);
#280=ORIENTED_EDGE('',*,*,#489,.T.);
#281=ORIENTED_EDGE('',*,*,#488,.T.);
#282=ORIENTED_EDGE('',*,*,#394,.F.);
#283=ORIENTED_EDGE('',*,*,#483,.F.);
#284=ORIENTED_EDGE('',*,*,#490,.T.);
#285=ORIENTED_EDGE('',*,*,#491,.T.);
#286=ORIENTED_EDGE('',*,*,#492,.T.);
#287=ORIENTED_EDGE('',*,*,#493,.F.);
#288=ORIENTED_EDGE('',*,*,#482,.F.);
#289=ORIENTED_EDGE('',*,*,#486,.T.);
#290=ORIENTED_EDGE('',*,*,#487,.F.);
#291=ORIENTED_EDGE('',*,*,#489,.F.);
#292=ORIENTED_EDGE('',*,*,#373,.F.);
#293=ORIENTED_EDGE('',*,*,#494,.F.);
#294=ORIENTED_EDGE('',*,*,#364,.T.);
#295=ORIENTED_EDGE('',*,*,#495,.T.);
#296=ORIENTED_EDGE('',*,*,#372,.T.);
#297=ORIENTED_EDGE('',*,*,#496,.F.);
#298=ORIENTED_EDGE('',*,*,#365,.F.);
#299=ORIENTED_EDGE('',*,*,#494,.T.);
#300=ORIENTED_EDGE('',*,*,#375,.T.);
#301=ORIENTED_EDGE('',*,*,#497,.F.);
#302=ORIENTED_EDGE('',*,*,#366,.F.);
#303=ORIENTED_EDGE('',*,*,#496,.T.);
#304=ORIENTED_EDGE('',*,*,#374,.T.);
#305=ORIENTED_EDGE('',*,*,#495,.F.);
#306=ORIENTED_EDGE('',*,*,#367,.F.);
#307=ORIENTED_EDGE('',*,*,#497,.T.);
#308=ORIENTED_EDGE('',*,*,#498,.T.);
#309=ORIENTED_EDGE('',*,*,#491,.F.);
#310=ORIENTED_EDGE('',*,*,#499,.F.);
#311=ORIENTED_EDGE('',*,*,#369,.F.);
#312=ORIENTED_EDGE('',*,*,#500,.T.);
#313=ORIENTED_EDGE('',*,*,#492,.F.);
#314=ORIENTED_EDGE('',*,*,#498,.F.);
#315=ORIENTED_EDGE('',*,*,#368,.F.);
#316=ORIENTED_EDGE('',*,*,#371,.T.);
#317=ORIENTED_EDGE('',*,*,#501,.T.);
#318=ORIENTED_EDGE('',*,*,#493,.T.);
#319=ORIENTED_EDGE('',*,*,#500,.F.);
#320=ORIENTED_EDGE('',*,*,#499,.T.);
#321=ORIENTED_EDGE('',*,*,#490,.F.);
#322=ORIENTED_EDGE('',*,*,#501,.F.);
#323=ORIENTED_EDGE('',*,*,#370,.F.);
#324=ORIENTED_EDGE('',*,*,#443,.T.);
#325=ORIENTED_EDGE('',*,*,#455,.F.);
#326=ORIENTED_EDGE('',*,*,#442,.T.);
#327=ORIENTED_EDGE('',*,*,#454,.F.);
#328=ORIENTED_EDGE('',*,*,#502,.T.);
#329=ORIENTED_EDGE('',*,*,#452,.T.);
#330=ORIENTED_EDGE('',*,*,#503,.F.);
#331=ORIENTED_EDGE('',*,*,#441,.F.);
#332=ORIENTED_EDGE('',*,*,#504,.T.);
#333=ORIENTED_EDGE('',*,*,#453,.T.);
#334=ORIENTED_EDGE('',*,*,#502,.F.);
#335=ORIENTED_EDGE('',*,*,#440,.F.);
#336=ORIENTED_EDGE('',*,*,#439,.T.);
#337=ORIENTED_EDGE('',*,*,#505,.T.);
#338=ORIENTED_EDGE('',*,*,#450,.F.);
#339=ORIENTED_EDGE('',*,*,#504,.F.);
#340=ORIENTED_EDGE('',*,*,#438,.T.);
#341=ORIENTED_EDGE('',*,*,#503,.T.);
#342=ORIENTED_EDGE('',*,*,#451,.F.);
#343=ORIENTED_EDGE('',*,*,#505,.F.);
#344=ORIENTED_EDGE('',*,*,#401,.T.);
#345=ORIENTED_EDGE('',*,*,#416,.F.);
#346=ORIENTED_EDGE('',*,*,#400,.T.);
#347=ORIENTED_EDGE('',*,*,#415,.F.);
#348=ORIENTED_EDGE('',*,*,#506,.T.);
#349=ORIENTED_EDGE('',*,*,#396,.T.);
#350=ORIENTED_EDGE('',*,*,#507,.F.);
#351=ORIENTED_EDGE('',*,*,#412,.F.);
#352=ORIENTED_EDGE('',*,*,#507,.T.);
#353=ORIENTED_EDGE('',*,*,#399,.T.);
#354=ORIENTED_EDGE('',*,*,#508,.F.);
#355=ORIENTED_EDGE('',*,*,#413,.F.);
#356=ORIENTED_EDGE('',*,*,#414,.T.);
#357=ORIENTED_EDGE('',*,*,#508,.T.);
#358=ORIENTED_EDGE('',*,*,#398,.F.);
#359=ORIENTED_EDGE('',*,*,#509,.F.);
#360=ORIENTED_EDGE('',*,*,#411,.T.);
#361=ORIENTED_EDGE('',*,*,#509,.T.);
#362=ORIENTED_EDGE('',*,*,#397,.F.);
#363=ORIENTED_EDGE('',*,*,#506,.F.);
#364=EDGE_CURVE('',#510,#511,#606,.T.);
#365=EDGE_CURVE('',#510,#512,#607,.T.);
#366=EDGE_CURVE('',#512,#513,#608,.T.);
#367=EDGE_CURVE('',#513,#511,#609,.T.);
#368=EDGE_CURVE('',#514,#515,#610,.T.);
#369=EDGE_CURVE('',#515,#516,#611,.T.);
#370=EDGE_CURVE('',#516,#517,#612,.T.);
#371=EDGE_CURVE('',#514,#517,#613,.T.);
#372=EDGE_CURVE('',#518,#519,#614,.T.);
#373=EDGE_CURVE('',#518,#520,#615,.T.);
#374=EDGE_CURVE('',#521,#520,#616,.T.);
#375=EDGE_CURVE('',#519,#521,#617,.T.);
#376=EDGE_CURVE('',#522,#523,#618,.T.);
#377=EDGE_CURVE('',#522,#524,#619,.T.);
#378=EDGE_CURVE('',#524,#525,#620,.T.);
#379=EDGE_CURVE('',#525,#523,#621,.T.);
#380=EDGE_CURVE('',#526,#527,#622,.T.);
#381=EDGE_CURVE('',#526,#528,#623,.T.);
#382=EDGE_CURVE('',#528,#529,#624,.T.);
#383=EDGE_CURVE('',#527,#529,#625,.T.);
#384=EDGE_CURVE('',#530,#531,#626,.T.);
#385=EDGE_CURVE('',#530,#532,#627,.T.);
#386=EDGE_CURVE('',#532,#533,#628,.T.);
#387=EDGE_CURVE('',#531,#533,#629,.T.);
#388=EDGE_CURVE('',#534,#535,#630,.F.);
#389=EDGE_CURVE('',#535,#536,#631,.F.);
#390=EDGE_CURVE('',#536,#537,#632,.F.);
#391=EDGE_CURVE('',#537,#534,#633,.T.);
#392=EDGE_CURVE('',#538,#539,#634,.T.);
#393=EDGE_CURVE('',#538,#540,#635,.T.);
#394=EDGE_CURVE('',#540,#541,#636,.T.);
#395=EDGE_CURVE('',#541,#539,#637,.T.);
#396=EDGE_CURVE('',#542,#543,#638,.T.);
#397=EDGE_CURVE('',#542,#544,#639,.T.);
#398=EDGE_CURVE('',#544,#545,#640,.T.);
#399=EDGE_CURVE('',#543,#545,#641,.T.);
#400=EDGE_CURVE('',#546,#546,#40,.T.);
#401=EDGE_CURVE('',#547,#547,#41,.T.);
#402=EDGE_CURVE('',#548,#549,#42,.F.);
#403=EDGE_CURVE('',#549,#550,#642,.F.);
#404=EDGE_CURVE('',#550,#551,#43,.F.);
#405=EDGE_CURVE('',#551,#552,#643,.F.);
#406=EDGE_CURVE('',#552,#553,#644,.T.);
#407=EDGE_CURVE('',#553,#548,#645,.T.);
#408=EDGE_CURVE('',#554,#551,#646,.F.);
#409=EDGE_CURVE('',#551,#550,#44,.F.);
#410=EDGE_CURVE('',#550,#554,#647,.F.);
#411=EDGE_CURVE('',#555,#556,#648,.T.);
#412=EDGE_CURVE('',#555,#557,#649,.T.);
#413=EDGE_CURVE('',#557,#558,#650,.T.);
#414=EDGE_CURVE('',#556,#558,#651,.T.);
#415=EDGE_CURVE('',#559,#559,#45,.T.);
#416=EDGE_CURVE('',#560,#560,#46,.T.);
#417=EDGE_CURVE('',#561,#561,#47,.T.);
#418=EDGE_CURVE('',#562,#562,#48,.T.);
#419=EDGE_CURVE('',#563,#564,#652,.T.);
#420=EDGE_CURVE('',#524,#564,#653,.T.);
#421=EDGE_CURVE('',#522,#563,#654,.T.);
#422=EDGE_CURVE('',#565,#566,#655,.T.);
#423=EDGE_CURVE('',#566,#567,#656,.F.);
#424=EDGE_CURVE('',#567,#568,#657,.F.);
#425=EDGE_CURVE('',#568,#569,#658,.T.);
#426=EDGE_CURVE('',#563,#569,#659,.T.);
#427=EDGE_CURVE('',#523,#565,#660,.T.);
#428=EDGE_CURVE('',#570,#549,#661,.F.);
#429=EDGE_CURVE('',#549,#548,#49,.F.);
#430=EDGE_CURVE('',#548,#570,#662,.T.);
#431=EDGE_CURVE('',#571,#572,#663,.T.);
#432=EDGE_CURVE('',#572,#573,#664,.T.);
#433=EDGE_CURVE('',#574,#573,#665,.T.);
#434=EDGE_CURVE('',#525,#574,#666,.T.);
#435=EDGE_CURVE('',#564,#575,#667,.T.);
#436=EDGE_CURVE('',#575,#571,#668,.F.);
#437=EDGE_CURVE('',#569,#575,#669,.T.);
#438=EDGE_CURVE('',#576,#577,#670,.T.);
#439=EDGE_CURVE('',#578,#576,#671,.T.);
#440=EDGE_CURVE('',#578,#579,#672,.T.);
#441=EDGE_CURVE('',#579,#577,#673,.T.);
#442=EDGE_CURVE('',#580,#580,#50,.T.);
#443=EDGE_CURVE('',#581,#581,#51,.T.);
#444=EDGE_CURVE('',#582,#583,#674,.F.);
#445=EDGE_CURVE('',#583,#584,#675,.T.);
#446=EDGE_CURVE('',#584,#585,#676,.T.);
#447=EDGE_CURVE('',#585,#582,#677,.F.);
#448=EDGE_CURVE('',#586,#586,#52,.T.);
#449=EDGE_CURVE('',#587,#587,#53,.T.);
#450=EDGE_CURVE('',#588,#589,#678,.T.);
#451=EDGE_CURVE('',#589,#590,#679,.T.);
#452=EDGE_CURVE('',#591,#590,#680,.T.);
#453=EDGE_CURVE('',#588,#591,#681,.T.);
#454=EDGE_CURVE('',#592,#592,#54,.T.);
#455=EDGE_CURVE('',#593,#593,#55,.T.);
#456=EDGE_CURVE('',#594,#594,#56,.T.);
#457=EDGE_CURVE('',#595,#595,#57,.T.);
#458=EDGE_CURVE('',#574,#565,#682,.T.);
#459=EDGE_CURVE('',#573,#566,#683,.T.);
#460=EDGE_CURVE('',#527,#532,#684,.T.);
#461=EDGE_CURVE('',#526,#530,#685,.T.);
#462=EDGE_CURVE('',#528,#531,#686,.T.);
#463=EDGE_CURVE('',#529,#533,#687,.T.);
#464=EDGE_CURVE('',#596,#596,#58,.T.);
#465=EDGE_CURVE('',#597,#597,#59,.T.);
#466=EDGE_CURVE('',#569,#554,#16,.T.);
#467=EDGE_CURVE('',#552,#568,#60,.T.);
#468=EDGE_CURVE('',#567,#584,#61,.T.);
#469=EDGE_CURVE('',#585,#566,#17,.F.);
#470=EDGE_CURVE('',#568,#537,#62,.T.);
#471=EDGE_CURVE('',#534,#567,#63,.T.);
#472=EDGE_CURVE('',#552,#537,#64,.F.);
#473=EDGE_CURVE('',#575,#570,#18,.T.);
#474=EDGE_CURVE('',#582,#573,#19,.F.);
#475=EDGE_CURVE('',#534,#584,#65,.F.);
#476=EDGE_CURVE('',#553,#536,#66,.T.);
#477=EDGE_CURVE('',#571,#553,#67,.T.);
#478=EDGE_CURVE('',#583,#572,#68,.T.);
#479=EDGE_CURVE('',#535,#583,#69,.T.);
#480=EDGE_CURVE('',#571,#536,#70,.F.);
#481=EDGE_CURVE('',#535,#572,#71,.F.);
#482=EDGE_CURVE('',#598,#599,#688,.T.);
#483=EDGE_CURVE('',#599,#540,#689,.T.);
#484=EDGE_CURVE('',#598,#538,#690,.T.);
#485=EDGE_CURVE('',#600,#539,#691,.T.);
#486=EDGE_CURVE('',#598,#600,#692,.T.);
#487=EDGE_CURVE('',#601,#600,#693,.T.);
#488=EDGE_CURVE('',#601,#541,#694,.T.);
#489=EDGE_CURVE('',#599,#601,#695,.T.);
#490=EDGE_CURVE('',#602,#603,#696,.T.);
#491=EDGE_CURVE('',#603,#604,#697,.T.);
#492=EDGE_CURVE('',#604,#605,#698,.T.);
#493=EDGE_CURVE('',#602,#605,#699,.T.);
#494=EDGE_CURVE('',#510,#518,#700,.T.);
#495=EDGE_CURVE('',#511,#520,#701,.T.);
#496=EDGE_CURVE('',#512,#519,#702,.T.);
#497=EDGE_CURVE('',#513,#521,#703,.T.);
#498=EDGE_CURVE('',#515,#604,#704,.T.);
#499=EDGE_CURVE('',#516,#603,#705,.T.);
#500=EDGE_CURVE('',#514,#605,#706,.T.);
#501=EDGE_CURVE('',#517,#602,#707,.T.);
#502=EDGE_CURVE('',#579,#591,#708,.T.);
#503=EDGE_CURVE('',#577,#590,#709,.T.);
#504=EDGE_CURVE('',#578,#588,#710,.T.);
#505=EDGE_CURVE('',#576,#589,#711,.T.);
#506=EDGE_CURVE('',#555,#542,#712,.T.);
#507=EDGE_CURVE('',#557,#543,#713,.T.);
#508=EDGE_CURVE('',#558,#545,#714,.T.);
#509=EDGE_CURVE('',#556,#544,#715,.T.);
#510=VERTEX_POINT('',#1540);
#511=VERTEX_POINT('',#1541);
#512=VERTEX_POINT('',#1543);
#513=VERTEX_POINT('',#1545);
#514=VERTEX_POINT('',#1548);
#515=VERTEX_POINT('',#1549);
#516=VERTEX_POINT('',#1551);
#517=VERTEX_POINT('',#1553);
#518=VERTEX_POINT('',#1557);
#519=VERTEX_POINT('',#1558);
#520=VERTEX_POINT('',#1560);
#521=VERTEX_POINT('',#1562);
#522=VERTEX_POINT('',#1565);
#523=VERTEX_POINT('',#1566);
#524=VERTEX_POINT('',#1568);
#525=VERTEX_POINT('',#1570);
#526=VERTEX_POINT('',#1573);
#527=VERTEX_POINT('',#1574);
#528=VERTEX_POINT('',#1576);
#529=VERTEX_POINT('',#1578);
#530=VERTEX_POINT('',#1582);
#531=VERTEX_POINT('',#1583);
#532=VERTEX_POINT('',#1585);
#533=VERTEX_POINT('',#1587);
#534=VERTEX_POINT('',#1590);
#535=VERTEX_POINT('',#1591);
#536=VERTEX_POINT('',#1593);
#537=VERTEX_POINT('',#1595);
#538=VERTEX_POINT('',#1598);
#539=VERTEX_POINT('',#1599);
#540=VERTEX_POINT('',#1601);
#541=VERTEX_POINT('',#1603);
#542=VERTEX_POINT('',#1607);
#543=VERTEX_POINT('',#1608);
#544=VERTEX_POINT('',#1610);
#545=VERTEX_POINT('',#1612);
#546=VERTEX_POINT('',#1615);
#547=VERTEX_POINT('',#1617);
#548=VERTEX_POINT('',#1619);
#549=VERTEX_POINT('',#1620);
#550=VERTEX_POINT('',#1622);
#551=VERTEX_POINT('',#1624);
#552=VERTEX_POINT('',#1626);
#553=VERTEX_POINT('',#1628);
#554=VERTEX_POINT('',#1632);
#555=VERTEX_POINT('',#1637);
#556=VERTEX_POINT('',#1638);
#557=VERTEX_POINT('',#1640);
#558=VERTEX_POINT('',#1642);
#559=VERTEX_POINT('',#1645);
#560=VERTEX_POINT('',#1647);
#561=VERTEX_POINT('',#1649);
#562=VERTEX_POINT('',#1651);
#563=VERTEX_POINT('',#1653);
#564=VERTEX_POINT('',#1654);
#565=VERTEX_POINT('',#1659);
#566=VERTEX_POINT('',#1660);
#567=VERTEX_POINT('',#1662);
#568=VERTEX_POINT('',#1664);
#569=VERTEX_POINT('',#1666);
#570=VERTEX_POINT('',#1671);
#571=VERTEX_POINT('',#1676);
#572=VERTEX_POINT('',#1677);
#573=VERTEX_POINT('',#1679);
#574=VERTEX_POINT('',#1681);
#575=VERTEX_POINT('',#1684);
#576=VERTEX_POINT('',#1690);
#577=VERTEX_POINT('',#1691);
#578=VERTEX_POINT('',#1693);
#579=VERTEX_POINT('',#1695);
#580=VERTEX_POINT('',#1698);
#581=VERTEX_POINT('',#1700);
#582=VERTEX_POINT('',#1702);
#583=VERTEX_POINT('',#1703);
#584=VERTEX_POINT('',#1705);
#585=VERTEX_POINT('',#1707);
#586=VERTEX_POINT('',#1710);
#587=VERTEX_POINT('',#1712);
#588=VERTEX_POINT('',#1715);
#589=VERTEX_POINT('',#1716);
#590=VERTEX_POINT('',#1718);
#591=VERTEX_POINT('',#1720);
#592=VERTEX_POINT('',#1723);
#593=VERTEX_POINT('',#1725);
#594=VERTEX_POINT('',#1727);
#595=VERTEX_POINT('',#1729);
#596=VERTEX_POINT('',#1743);
#597=VERTEX_POINT('',#1746);
#598=VERTEX_POINT('',#1783);
#599=VERTEX_POINT('',#1784);
#600=VERTEX_POINT('',#1789);
#601=VERTEX_POINT('',#1793);
#602=VERTEX_POINT('',#1799);
#603=VERTEX_POINT('',#1800);
#604=VERTEX_POINT('',#1802);
#605=VERTEX_POINT('',#1804);
#606=LINE('',#1539,#716);
#607=LINE('',#1542,#717);
#608=LINE('',#1544,#718);
#609=LINE('',#1546,#719);
#610=LINE('',#1547,#720);
#611=LINE('',#1550,#721);
#612=LINE('',#1552,#722);
#613=LINE('',#1554,#723);
#614=LINE('',#1556,#724);
#615=LINE('',#1559,#725);
#616=LINE('',#1561,#726);
#617=LINE('',#1563,#727);
#618=LINE('',#1564,#728);
#619=LINE('',#1567,#729);
#620=LINE('',#1569,#730);
#621=LINE('',#1571,#731);
#622=LINE('',#1572,#732);
#623=LINE('',#1575,#733);
#624=LINE('',#1577,#734);
#625=LINE('',#1579,#735);
#626=LINE('',#1581,#736);
#627=LINE('',#1584,#737);
#628=LINE('',#1586,#738);
#629=LINE('',#1588,#739);
#630=LINE('',#1589,#740);
#631=LINE('',#1592,#741);
#632=LINE('',#1594,#742);
#633=LINE('',#1596,#743);
#634=LINE('',#1597,#744);
#635=LINE('',#1600,#745);
#636=LINE('',#1602,#746);
#637=LINE('',#1604,#747);
#638=LINE('',#1606,#748);
#639=LINE('',#1609,#749);
#640=LINE('',#1611,#750);
#641=LINE('',#1613,#751);
#642=LINE('',#1621,#752);
#643=LINE('',#1625,#753);
#644=LINE('',#1627,#754);
#645=LINE('',#1629,#755);
#646=LINE('',#1631,#756);
#647=LINE('',#1634,#757);
#648=LINE('',#1636,#758);
#649=LINE('',#1639,#759);
#650=LINE('',#1641,#760);
#651=LINE('',#1643,#761);
#652=LINE('',#1652,#762);
#653=LINE('',#1655,#763);
#654=LINE('',#1656,#764);
#655=LINE('',#1658,#765);
#656=LINE('',#1661,#766);
#657=LINE('',#1663,#767);
#658=LINE('',#1665,#768);
#659=LINE('',#1667,#769);
#660=LINE('',#1668,#770);
#661=LINE('',#1670,#771);
#662=LINE('',#1673,#772);
#663=LINE('',#1675,#773);
#664=LINE('',#1678,#774);
#665=LINE('',#1680,#775);
#666=LINE('',#1682,#776);
#667=LINE('',#1683,#777);
#668=LINE('',#1685,#778);
#669=LINE('',#1687,#779);
#670=LINE('',#1689,#780);
#671=LINE('',#1692,#781);
#672=LINE('',#1694,#782);
#673=LINE('',#1696,#783);
#674=LINE('',#1701,#784);
#675=LINE('',#1704,#785);
#676=LINE('',#1706,#786);
#677=LINE('',#1708,#787);
#678=LINE('',#1714,#788);
#679=LINE('',#1717,#789);
#680=LINE('',#1719,#790);
#681=LINE('',#1721,#791);
#682=LINE('',#1730,#792);
#683=LINE('',#1732,#793);
#684=LINE('',#1734,#794);
#685=LINE('',#1735,#795);
#686=LINE('',#1737,#796);
#687=LINE('',#1739,#797);
#688=LINE('',#1782,#798);
#689=LINE('',#1785,#799);
#690=LINE('',#1786,#800);
#691=LINE('',#1788,#801);
#692=LINE('',#1790,#802);
#693=LINE('',#1792,#803);
#694=LINE('',#1794,#804);
#695=LINE('',#1796,#805);
#696=LINE('',#1798,#806);
#697=LINE('',#1801,#807);
#698=LINE('',#1803,#808);
#699=LINE('',#1805,#809);
#700=LINE('',#1807,#810);
#701=LINE('',#1808,#811);
#702=LINE('',#1810,#812);
#703=LINE('',#1812,#813);
#704=LINE('',#1815,#814);
#705=LINE('',#1816,#815);
#706=LINE('',#1818,#816);
#707=LINE('',#1820,#817);
#708=LINE('',#1825,#818);
#709=LINE('',#1826,#819);
#710=LINE('',#1828,#820);
#711=LINE('',#1830,#821);
#712=LINE('',#1835,#822);
#713=LINE('',#1836,#823);
#714=LINE('',#1838,#824);
#715=LINE('',#1840,#825);
#716=VECTOR('',#1233,1.);
#717=VECTOR('',#1234,1.);
#718=VECTOR('',#1235,1.);
#719=VECTOR('',#1236,1.);
#720=VECTOR('',#1237,1.);
#721=VECTOR('',#1238,1.);
#722=VECTOR('',#1239,1.);
#723=VECTOR('',#1240,1.);
#724=VECTOR('',#1243,1.);
#725=VECTOR('',#1244,1.);
#726=VECTOR('',#1245,1.);
#727=VECTOR('',#1246,1.);
#728=VECTOR('',#1247,1.);
#729=VECTOR('',#1248,1.);
#730=VECTOR('',#1249,1.);
#731=VECTOR('',#1250,1.);
#732=VECTOR('',#1251,1.);
#733=VECTOR('',#1252,1.);
#734=VECTOR('',#1253,1.);
#735=VECTOR('',#1254,1.);
#736=VECTOR('',#1257,1.);
#737=VECTOR('',#1258,1.);
#738=VECTOR('',#1259,1.);
#739=VECTOR('',#1260,1.);
#740=VECTOR('',#1261,1.);
#741=VECTOR('',#1262,1.);
#742=VECTOR('',#1263,1.);
#743=VECTOR('',#1264,1.);
#744=VECTOR('',#1265,1.);
#745=VECTOR('',#1266,1.);
#746=VECTOR('',#1267,1.);
#747=VECTOR('',#1268,1.);
#748=VECTOR('',#1271,1.);
#749=VECTOR('',#1272,1.);
#750=VECTOR('',#1273,1.);
#751=VECTOR('',#1274,1.);
#752=VECTOR('',#1281,1.);
#753=VECTOR('',#1284,1.);
#754=VECTOR('',#1285,1.);
#755=VECTOR('',#1286,1.);
#756=VECTOR('',#1289,1.);
#757=VECTOR('',#1292,1.);
#758=VECTOR('',#1295,1.);
#759=VECTOR('',#1296,1.);
#760=VECTOR('',#1297,1.);
#761=VECTOR('',#1298,1.);
#762=VECTOR('',#1307,1.);
#763=VECTOR('',#1308,1.);
#764=VECTOR('',#1309,1.);
#765=VECTOR('',#1312,1.);
#766=VECTOR('',#1313,1.);
#767=VECTOR('',#1314,1.);
#768=VECTOR('',#1315,1.);
#769=VECTOR('',#1316,1.);
#770=VECTOR('',#1317,1.);
#771=VECTOR('',#1320,1.);
#772=VECTOR('',#1323,1.);
#773=VECTOR('',#1326,1.);
#774=VECTOR('',#1327,1.);
#775=VECTOR('',#1328,1.);
#776=VECTOR('',#1329,1.);
#777=VECTOR('',#1330,1.);
#778=VECTOR('',#1331,1.);
#779=VECTOR('',#1334,1.);
#780=VECTOR('',#1337,1.);
#781=VECTOR('',#1338,1.);
#782=VECTOR('',#1339,1.);
#783=VECTOR('',#1340,1.);
#784=VECTOR('',#1345,1.);
#785=VECTOR('',#1346,1.);
#786=VECTOR('',#1347,1.);
#787=VECTOR('',#1348,1.);
#788=VECTOR('',#1355,1.);
#789=VECTOR('',#1356,1.);
#790=VECTOR('',#1357,1.);
#791=VECTOR('',#1358,1.);
#792=VECTOR('',#1367,1.);
#793=VECTOR('',#1370,1.);
#794=VECTOR('',#1373,1.);
#795=VECTOR('',#1374,1.);
#796=VECTOR('',#1377,1.);
#797=VECTOR('',#1380,1.);
#798=VECTOR('',#1461,1.);
#799=VECTOR('',#1462,1.);
#800=VECTOR('',#1463,1.);
#801=VECTOR('',#1466,1.);
#802=VECTOR('',#1467,1.);
#803=VECTOR('',#1470,1.);
#804=VECTOR('',#1471,1.);
#805=VECTOR('',#1474,1.);
#806=VECTOR('',#1477,1.);
#807=VECTOR('',#1478,1.);
#808=VECTOR('',#1479,1.);
#809=VECTOR('',#1480,1.);
#810=VECTOR('',#1483,1.);
#811=VECTOR('',#1484,1.);
#812=VECTOR('',#1487,1.);
#813=VECTOR('',#1490,1.);
#814=VECTOR('',#1495,1.);
#815=VECTOR('',#1496,1.);
#816=VECTOR('',#1499,1.);
#817=VECTOR('',#1502,1.);
#818=VECTOR('',#1511,1.);
#819=VECTOR('',#1512,1.);
#820=VECTOR('',#1515,1.);
#821=VECTOR('',#1518,1.);
#822=VECTOR('',#1527,1.);
#823=VECTOR('',#1528,1.);
#824=VECTOR('',#1531,1.);
#825=VECTOR('',#1534,1.);
#826=EDGE_LOOP('',(#72,#73,#74,#75));
#827=EDGE_LOOP('',(#76,#77,#78,#79));
#828=EDGE_LOOP('',(#80,#81,#82,#83));
#829=EDGE_LOOP('',(#84,#85,#86,#87));
#830=EDGE_LOOP('',(#88,#89,#90,#91));
#831=EDGE_LOOP('',(#92,#93,#94,#95));
#832=EDGE_LOOP('',(#96,#97,#98,#99));
#833=EDGE_LOOP('',(#100,#101,#102,#103));
#834=EDGE_LOOP('',(#104,#105,#106,#107));
#835=EDGE_LOOP('',(#108));
#836=EDGE_LOOP('',(#109));
#837=EDGE_LOOP('',(#110,#111,#112,#113,#114,#115));
#838=EDGE_LOOP('',(#116,#117,#118));
#839=EDGE_LOOP('',(#119,#120,#121,#122));
#840=EDGE_LOOP('',(#123));
#841=EDGE_LOOP('',(#124));
#842=EDGE_LOOP('',(#125));
#843=EDGE_LOOP('',(#126));
#844=EDGE_LOOP('',(#127,#128,#129,#130));
#845=EDGE_LOOP('',(#131,#132,#133,#134,#135,#136,#137,#138));
#846=EDGE_LOOP('',(#139,#140,#141));
#847=EDGE_LOOP('',(#142,#143,#144,#145,#146,#147,#148,#149));
#848=EDGE_LOOP('',(#150,#151,#152,#153));
#849=EDGE_LOOP('',(#154,#155,#156,#157));
#850=EDGE_LOOP('',(#158));
#851=EDGE_LOOP('',(#159));
#852=EDGE_LOOP('',(#160,#161,#162,#163));
#853=EDGE_LOOP('',(#164));
#854=EDGE_LOOP('',(#165));
#855=EDGE_LOOP('',(#166,#167,#168,#169));
#856=EDGE_LOOP('',(#170));
#857=EDGE_LOOP('',(#171));
#858=EDGE_LOOP('',(#172));
#859=EDGE_LOOP('',(#173));
#860=EDGE_LOOP('',(#174,#175,#176,#177));
#861=EDGE_LOOP('',(#178,#179,#180,#181));
#862=EDGE_LOOP('',(#182,#183,#184,#185));
#863=EDGE_LOOP('',(#186,#187,#188,#189));
#864=EDGE_LOOP('',(#190,#191,#192,#193));
#865=EDGE_LOOP('',(#194,#195,#196,#197));
#866=EDGE_LOOP('',(#198));
#867=EDGE_LOOP('',(#199));
#868=EDGE_LOOP('',(#200));
#869=EDGE_LOOP('',(#201));
#870=EDGE_LOOP('',(#202));
#871=EDGE_LOOP('',(#203));
#872=EDGE_LOOP('',(#204));
#873=EDGE_LOOP('',(#205));
#874=EDGE_LOOP('',(#206,#207));
#875=EDGE_LOOP('',(#208));
#876=EDGE_LOOP('',(#209,#210));
#877=EDGE_LOOP('',(#211));
#878=EDGE_LOOP('',(#212,#213,#214,#215,#216));
#879=EDGE_LOOP('',(#217,#218,#219,#220));
#880=EDGE_LOOP('',(#221,#222,#223,#224));
#881=EDGE_LOOP('',(#225,#226,#227));
#882=EDGE_LOOP('',(#228,#229,#230,#231,#232,#233));
#883=EDGE_LOOP('',(#234,#235,#236,#237));
#884=EDGE_LOOP('',(#238,#239,#240));
#885=EDGE_LOOP('',(#241,#242,#243,#244));
#886=EDGE_LOOP('',(#245,#246,#247,#248,#249));
#887=EDGE_LOOP('',(#250,#251,#252,#253));
#888=EDGE_LOOP('',(#254,#255,#256,#257));
#889=EDGE_LOOP('',(#258,#259,#260));
#890=EDGE_LOOP('',(#261,#262,#263));
#891=EDGE_LOOP('',(#264,#265,#266,#267));
#892=EDGE_LOOP('',(#268,#269,#270,#271));
#893=EDGE_LOOP('',(#272,#273,#274,#275));
#894=EDGE_LOOP('',(#276,#277,#278,#279));
#895=EDGE_LOOP('',(#280,#281,#282,#283));
#896=EDGE_LOOP('',(#284,#285,#286,#287));
#897=EDGE_LOOP('',(#288,#289,#290,#291));
#898=EDGE_LOOP('',(#292,#293,#294,#295));
#899=EDGE_LOOP('',(#296,#297,#298,#299));
#900=EDGE_LOOP('',(#300,#301,#302,#303));
#901=EDGE_LOOP('',(#304,#305,#306,#307));
#902=EDGE_LOOP('',(#308,#309,#310,#311));
#903=EDGE_LOOP('',(#312,#313,#314,#315));
#904=EDGE_LOOP('',(#316,#317,#318,#319));
#905=EDGE_LOOP('',(#320,#321,#322,#323));
#906=EDGE_LOOP('',(#324));
#907=EDGE_LOOP('',(#325));
#908=EDGE_LOOP('',(#326));
#909=EDGE_LOOP('',(#327));
#910=EDGE_LOOP('',(#328,#329,#330,#331));
#911=EDGE_LOOP('',(#332,#333,#334,#335));
#912=EDGE_LOOP('',(#336,#337,#338,#339));
#913=EDGE_LOOP('',(#340,#341,#342,#343));
#914=EDGE_LOOP('',(#344));
#915=EDGE_LOOP('',(#345));
#916=EDGE_LOOP('',(#346));
#917=EDGE_LOOP('',(#347));
#918=EDGE_LOOP('',(#348,#349,#350,#351));
#919=EDGE_LOOP('',(#352,#353,#354,#355));
#920=EDGE_LOOP('',(#356,#357,#358,#359));
#921=EDGE_LOOP('',(#360,#361,#362,#363));
#922=FACE_BOUND('',#826,.T.);
#923=FACE_BOUND('',#827,.T.);
#924=FACE_BOUND('',#828,.T.);
#925=FACE_BOUND('',#829,.T.);
#926=FACE_BOUND('',#830,.T.);
#927=FACE_BOUND('',#831,.T.);
#928=FACE_BOUND('',#832,.T.);
#929=FACE_BOUND('',#833,.T.);
#930=FACE_BOUND('',#834,.T.);
#931=FACE_BOUND('',#835,.T.);
#932=FACE_BOUND('',#836,.T.);
#933=FACE_BOUND('',#837,.T.);
#934=FACE_BOUND('',#838,.T.);
#935=FACE_BOUND('',#839,.T.);
#936=FACE_BOUND('',#840,.T.);
#937=FACE_BOUND('',#841,.T.);
#938=FACE_BOUND('',#842,.T.);
#939=FACE_BOUND('',#843,.T.);
#940=FACE_BOUND('',#844,.T.);
#941=FACE_BOUND('',#845,.T.);
#942=FACE_BOUND('',#846,.T.);
#943=FACE_BOUND('',#847,.T.);
#944=FACE_BOUND('',#848,.T.);
#945=FACE_BOUND('',#849,.T.);
#946=FACE_BOUND('',#850,.T.);
#947=FACE_BOUND('',#851,.T.);
#948=FACE_BOUND('',#852,.T.);
#949=FACE_BOUND('',#853,.T.);
#950=FACE_BOUND('',#854,.T.);
#951=FACE_BOUND('',#855,.T.);
#952=FACE_BOUND('',#856,.T.);
#953=FACE_BOUND('',#857,.T.);
#954=FACE_BOUND('',#858,.T.);
#955=FACE_BOUND('',#859,.T.);
#956=FACE_BOUND('',#860,.T.);
#957=FACE_BOUND('',#861,.T.);
#958=FACE_BOUND('',#862,.T.);
#959=FACE_BOUND('',#863,.T.);
#960=FACE_BOUND('',#864,.T.);
#961=FACE_BOUND('',#865,.T.);
#962=FACE_BOUND('',#866,.T.);
#963=FACE_BOUND('',#867,.T.);
#964=FACE_BOUND('',#868,.T.);
#965=FACE_BOUND('',#869,.T.);
#966=FACE_BOUND('',#870,.T.);
#967=FACE_BOUND('',#871,.T.);
#968=FACE_BOUND('',#872,.T.);
#969=FACE_BOUND('',#873,.T.);
#970=FACE_BOUND('',#874,.T.);
#971=FACE_BOUND('',#875,.T.);
#972=FACE_BOUND('',#876,.T.);
#973=FACE_BOUND('',#877,.T.);
#974=FACE_BOUND('',#878,.T.);
#975=FACE_BOUND('',#879,.T.);
#976=FACE_BOUND('',#880,.T.);
#977=FACE_BOUND('',#881,.T.);
#978=FACE_BOUND('',#882,.T.);
#979=FACE_BOUND('',#883,.T.);
#980=FACE_BOUND('',#884,.T.);
#981=FACE_BOUND('',#885,.T.);
#982=FACE_BOUND('',#886,.T.);
#983=FACE_BOUND('',#887,.T.);
#984=FACE_BOUND('',#888,.T.);
#985=FACE_BOUND('',#889,.T.);
#986=FACE_BOUND('',#890,.T.);
#987=FACE_BOUND('',#891,.T.);
#988=FACE_BOUND('',#892,.T.);
#989=FACE_BOUND('',#893,.T.);
#990=FACE_BOUND('',#894,.T.);
#991=FACE_BOUND('',#895,.T.);
#992=FACE_BOUND('',#896,.T.);
#993=FACE_BOUND('',#897,.T.);
#994=FACE_BOUND('',#898,.T.);
#995=FACE_BOUND('',#899,.T.);
#996=FACE_BOUND('',#900,.T.);
#997=FACE_BOUND('',#901,.T.);
#998=FACE_BOUND('',#902,.T.);
#999=FACE_BOUND('',#903,.T.);
#1000=FACE_BOUND('',#904,.T.);
#1001=FACE_BOUND('',#905,.T.);
#1002=FACE_BOUND('',#906,.T.);
#1003=FACE_BOUND('',#907,.T.);
#1004=FACE_BOUND('',#908,.T.);
#1005=FACE_BOUND('',#909,.T.);
#1006=FACE_BOUND('',#910,.T.);
#1007=FACE_BOUND('',#911,.T.);
#1008=FACE_BOUND('',#912,.T.);
#1009=FACE_BOUND('',#913,.T.);
#1010=FACE_BOUND('',#914,.T.);
#1011=FACE_BOUND('',#915,.T.);
#1012=FACE_BOUND('',#916,.T.);
#1013=FACE_BOUND('',#917,.T.);
#1014=FACE_BOUND('',#918,.T.);
#1015=FACE_BOUND('',#919,.T.);
#1016=FACE_BOUND('',#920,.T.);
#1017=FACE_BOUND('',#921,.T.);
#1018=PLANE('',#1131);
#1019=PLANE('',#1132);
#1020=PLANE('',#1133);
#1021=PLANE('',#1134);
#1022=PLANE('',#1139);
#1023=PLANE('',#1141);
#1024=PLANE('',#1146);
#1025=PLANE('',#1147);
#1026=PLANE('',#1149);
#1027=PLANE('',#1150);
#1028=PLANE('',#1151);
#1029=PLANE('',#1156);
#1030=PLANE('',#1161);
#1031=PLANE('',#1162);
#1032=PLANE('',#1163);
#1033=PLANE('',#1164);
#1034=PLANE('',#1165);
#1035=PLANE('',#1204);
#1036=PLANE('',#1205);
#1037=PLANE('',#1206);
#1038=PLANE('',#1207);
#1039=PLANE('',#1208);
#1040=PLANE('',#1209);
#1041=PLANE('',#1210);
#1042=PLANE('',#1211);
#1043=PLANE('',#1212);
#1044=PLANE('',#1213);
#1045=PLANE('',#1214);
#1046=PLANE('',#1215);
#1047=PLANE('',#1216);
#1048=PLANE('',#1219);
#1049=PLANE('',#1220);
#1050=PLANE('',#1221);
#1051=PLANE('',#1222);
#1052=PLANE('',#1225);
#1053=PLANE('',#1226);
#1054=PLANE('',#1227);
#1055=PLANE('',#1228);
#1056=ADVANCED_FACE('',(#922,#923),#1018,.T.);
#1057=ADVANCED_FACE('',(#924,#925,#926),#1019,.F.);
#1058=ADVANCED_FACE('',(#927,#928,#929),#1020,.T.);
#1059=ADVANCED_FACE('',(#930,#931,#932,#933),#1021,.T.);
#1060=ADVANCED_FACE('',(#934),#1022,.T.);
#1061=ADVANCED_FACE('',(#935,#936,#937,#938,#939,#940),#1023,.F.);
#1062=ADVANCED_FACE('',(#941),#1024,.T.);
#1063=ADVANCED_FACE('',(#942),#1025,.T.);
#1064=ADVANCED_FACE('',(#943),#1026,.F.);
#1065=ADVANCED_FACE('',(#944),#1027,.T.);
#1066=ADVANCED_FACE('',(#945,#946,#947,#948,#949,#950),#1028,.T.);
#1067=ADVANCED_FACE('',(#951,#952,#953,#954,#955,#956),#1029,.F.);
#1068=ADVANCED_FACE('',(#957),#1030,.T.);
#1069=ADVANCED_FACE('',(#958),#1031,.T.);
#1070=ADVANCED_FACE('',(#959),#1032,.F.);
#1071=ADVANCED_FACE('',(#960),#1033,.F.);
#1072=ADVANCED_FACE('',(#961),#1034,.T.);
#1073=ADVANCED_FACE('',(#962,#963),#22,.F.);
#1074=ADVANCED_FACE('',(#964,#965),#23,.F.);
#1075=ADVANCED_FACE('',(#966,#967),#24,.F.);
#1076=ADVANCED_FACE('',(#968,#969),#25,.F.);
#1077=ADVANCED_FACE('',(#970,#971),#20,.T.);
#1078=ADVANCED_FACE('',(#972,#973),#21,.T.);
#1079=ADVANCED_FACE('',(#974),#26,.T.);
#1080=ADVANCED_FACE('',(#975),#27,.T.);
#1081=ADVANCED_FACE('',(#976),#28,.T.);
#1082=ADVANCED_FACE('',(#977),#12,.T.);
#1083=ADVANCED_FACE('',(#978),#29,.T.);
#1084=ADVANCED_FACE('',(#979),#30,.T.);
#1085=ADVANCED_FACE('',(#980),#13,.T.);
#1086=ADVANCED_FACE('',(#981),#31,.T.);
#1087=ADVANCED_FACE('',(#982),#32,.T.);
#1088=ADVANCED_FACE('',(#983),#33,.T.);
#1089=ADVANCED_FACE('',(#984),#34,.T.);
#1090=ADVANCED_FACE('',(#985),#14,.T.);
#1091=ADVANCED_FACE('',(#986),#15,.T.);
#1092=ADVANCED_FACE('',(#987),#35,.T.);
#1093=ADVANCED_FACE('',(#988),#1035,.T.);
#1094=ADVANCED_FACE('',(#989),#1036,.F.);
#1095=ADVANCED_FACE('',(#990),#1037,.T.);
#1096=ADVANCED_FACE('',(#991),#1038,.T.);
#1097=ADVANCED_FACE('',(#992,#993),#1039,.F.);
#1098=ADVANCED_FACE('',(#994),#1040,.T.);
#1099=ADVANCED_FACE('',(#995),#1041,.F.);
#1100=ADVANCED_FACE('',(#996),#1042,.F.);
#1101=ADVANCED_FACE('',(#997),#1043,.F.);
#1102=ADVANCED_FACE('',(#998),#1044,.T.);
#1103=ADVANCED_FACE('',(#999),#1045,.T.);
#1104=ADVANCED_FACE('',(#1000),#1046,.F.);
#1105=ADVANCED_FACE('',(#1001),#1047,.T.);
#1106=ADVANCED_FACE('',(#1002,#1003),#36,.F.);
#1107=ADVANCED_FACE('',(#1004,#1005),#37,.F.);
#1108=ADVANCED_FACE('',(#1006),#1048,.T.);
#1109=ADVANCED_FACE('',(#1007),#1049,.T.);
#1110=ADVANCED_FACE('',(#1008),#1050,.F.);
#1111=ADVANCED_FACE('',(#1009),#1051,.F.);
#1112=ADVANCED_FACE('',(#1010,#1011),#38,.F.);
#1113=ADVANCED_FACE('',(#1012,#1013),#39,.F.);
#1114=ADVANCED_FACE('',(#1014),#1052,.F.);
#1115=ADVANCED_FACE('',(#1015),#1053,.F.);
#1116=ADVANCED_FACE('',(#1016),#1054,.T.);
#1117=ADVANCED_FACE('',(#1017),#1055,.T.);
#1118=CLOSED_SHELL('',(#1056,#1057,#1058,#1059,#1060,#1061,#1062,#1063,
#1064,#1065,#1066,#1067,#1068,#1069,#1070,#1071,#1072,#1073,#1074,#1075,
#1076,#1077,#1078,#1079,#1080,#1081,#1082,#1083,#1084,#1085,#1086,#1087,
#1088,#1089,#1090,#1091,#1092,#1093,#1094,#1095,#1096,#1097,#1098,#1099,
#1100,#1101,#1102,#1103,#1104,#1105,#1106,#1107,#1108,#1109,#1110,#1111,
#1112,#1113,#1114,#1115,#1116,#1117));
#1119=STYLED_ITEM('',(#1120),#1127);
#1120=PRESENTATION_STYLE_ASSIGNMENT((#1121));
#1121=SURFACE_STYLE_USAGE(.BOTH.,#1122);
#1122=SURFACE_SIDE_STYLE('',(#1123));
#1123=SURFACE_STYLE_FILL_AREA(#1124);
#1124=FILL_AREA_STYLE('',(#1125));
#1125=FILL_AREA_STYLE_COLOUR('',#1126);
#1126=COLOUR_RGB('',0.917647058823529,0.917647058823529,0.917647058823529);
#1127=MANIFOLD_SOLID_BREP('Part 3',#1118);
#1128=SHAPE_DEFINITION_REPRESENTATION(#1848,#1129);
#1129=SHAPE_REPRESENTATION('Part 3',(#1130),#1843);
#1130=AXIS2_PLACEMENT_3D('',#1537,#1229,#1230);
#1131=AXIS2_PLACEMENT_3D('',#1538,#1231,#1232);
#1132=AXIS2_PLACEMENT_3D('',#1555,#1241,#1242);
#1133=AXIS2_PLACEMENT_3D('',#1580,#1255,#1256);
#1134=AXIS2_PLACEMENT_3D('',#1605,#1269,#1270);
#1135=AXIS2_PLACEMENT_3D('',#1614,#1275,#1276);
#1136=AXIS2_PLACEMENT_3D('',#1616,#1277,#1278);
#1137=AXIS2_PLACEMENT_3D('',#1618,#1279,#1280);
#1138=AXIS2_PLACEMENT_3D('',#1623,#1282,#1283);
#1139=AXIS2_PLACEMENT_3D('',#1630,#1287,#1288);
#1140=AXIS2_PLACEMENT_3D('',#1633,#1290,#1291);
#1141=AXIS2_PLACEMENT_3D('',#1635,#1293,#1294);
#1142=AXIS2_PLACEMENT_3D('',#1644,#1299,#1300);
#1143=AXIS2_PLACEMENT_3D('',#1646,#1301,#1302);
#1144=AXIS2_PLACEMENT_3D('',#1648,#1303,#1304);
#1145=AXIS2_PLACEMENT_3D('',#1650,#1305,#1306);
#1146=AXIS2_PLACEMENT_3D('',#1657,#1310,#1311);
#1147=AXIS2_PLACEMENT_3D('',#1669,#1318,#1319);
#1148=AXIS2_PLACEMENT_3D('',#1672,#1321,#1322);
#1149=AXIS2_PLACEMENT_3D('',#1674,#1324,#1325);
#1150=AXIS2_PLACEMENT_3D('',#1686,#1332,#1333);
#1151=AXIS2_PLACEMENT_3D('',#1688,#1335,#1336);
#1152=AXIS2_PLACEMENT_3D('',#1697,#1341,#1342);
#1153=AXIS2_PLACEMENT_3D('',#1699,#1343,#1344);
#1154=AXIS2_PLACEMENT_3D('',#1709,#1349,#1350);
#1155=AXIS2_PLACEMENT_3D('',#1711,#1351,#1352);
#1156=AXIS2_PLACEMENT_3D('',#1713,#1353,#1354);
#1157=AXIS2_PLACEMENT_3D('',#1722,#1359,#1360);
#1158=AXIS2_PLACEMENT_3D('',#1724,#1361,#1362);
#1159=AXIS2_PLACEMENT_3D('',#1726,#1363,#1364);
#1160=AXIS2_PLACEMENT_3D('',#1728,#1365,#1366);
#1161=AXIS2_PLACEMENT_3D('',#1731,#1368,#1369);
#1162=AXIS2_PLACEMENT_3D('',#1733,#1371,#1372);
#1163=AXIS2_PLACEMENT_3D('',#1736,#1375,#1376);
#1164=AXIS2_PLACEMENT_3D('',#1738,#1378,#1379);
#1165=AXIS2_PLACEMENT_3D('',#1740,#1381,#1382);
#1166=AXIS2_PLACEMENT_3D('',#1741,#1383,#1384);
#1167=AXIS2_PLACEMENT_3D('',#1742,#1385,#1386);
#1168=AXIS2_PLACEMENT_3D('',#1744,#1387,#1388);
#1169=AXIS2_PLACEMENT_3D('',#1745,#1389,#1390);
#1170=AXIS2_PLACEMENT_3D('',#1747,#1391,#1392);
#1171=AXIS2_PLACEMENT_3D('',#1748,#1393,#1394);
#1172=AXIS2_PLACEMENT_3D('',#1749,#1395,#1396);
#1173=AXIS2_PLACEMENT_3D('',#1750,#1397,#1398);
#1174=AXIS2_PLACEMENT_3D('',#1751,#1399,#1400);
#1175=AXIS2_PLACEMENT_3D('',#1752,#1401,#1402);
#1176=AXIS2_PLACEMENT_3D('',#1753,#1403,#1404);
#1177=AXIS2_PLACEMENT_3D('',#1754,#1405,#1406);
#1178=AXIS2_PLACEMENT_3D('',#1755,#1407,#1408);
#1179=AXIS2_PLACEMENT_3D('',#1756,#1409,#1410);
#1180=AXIS2_PLACEMENT_3D('',#1757,#1411,#1412);
#1181=AXIS2_PLACEMENT_3D('',#1758,#1413,#1414);
#1182=AXIS2_PLACEMENT_3D('',#1759,#1415,#1416);
#1183=AXIS2_PLACEMENT_3D('',#1760,#1417,#1418);
#1184=AXIS2_PLACEMENT_3D('',#1761,#1419,#1420);
#1185=AXIS2_PLACEMENT_3D('',#1762,#1421,#1422);
#1186=AXIS2_PLACEMENT_3D('',#1763,#1423,#1424);
#1187=AXIS2_PLACEMENT_3D('',#1764,#1425,#1426);
#1188=AXIS2_PLACEMENT_3D('',#1765,#1427,#1428);
#1189=AXIS2_PLACEMENT_3D('',#1766,#1429,#1430);
#1190=AXIS2_PLACEMENT_3D('',#1767,#1431,#1432);
#1191=AXIS2_PLACEMENT_3D('',#1768,#1433,#1434);
#1192=AXIS2_PLACEMENT_3D('',#1769,#1435,#1436);
#1193=AXIS2_PLACEMENT_3D('',#1770,#1437,#1438);
#1194=AXIS2_PLACEMENT_3D('',#1771,#1439,#1440);
#1195=AXIS2_PLACEMENT_3D('',#1772,#1441,#1442);
#1196=AXIS2_PLACEMENT_3D('',#1773,#1443,#1444);
#1197=AXIS2_PLACEMENT_3D('',#1774,#1445,#1446);
#1198=AXIS2_PLACEMENT_3D('',#1775,#1447,#1448);
#1199=AXIS2_PLACEMENT_3D('',#1776,#1449,#1450);
#1200=AXIS2_PLACEMENT_3D('',#1777,#1451,#1452);
#1201=AXIS2_PLACEMENT_3D('',#1778,#1453,#1454);
#1202=AXIS2_PLACEMENT_3D('',#1779,#1455,#1456);
#1203=AXIS2_PLACEMENT_3D('',#1780,#1457,#1458);
#1204=AXIS2_PLACEMENT_3D('',#1781,#1459,#1460);
#1205=AXIS2_PLACEMENT_3D('',#1787,#1464,#1465);
#1206=AXIS2_PLACEMENT_3D('',#1791,#1468,#1469);
#1207=AXIS2_PLACEMENT_3D('',#1795,#1472,#1473);
#1208=AXIS2_PLACEMENT_3D('',#1797,#1475,#1476);
#1209=AXIS2_PLACEMENT_3D('',#1806,#1481,#1482);
#1210=AXIS2_PLACEMENT_3D('',#1809,#1485,#1486);
#1211=AXIS2_PLACEMENT_3D('',#1811,#1488,#1489);
#1212=AXIS2_PLACEMENT_3D('',#1813,#1491,#1492);
#1213=AXIS2_PLACEMENT_3D('',#1814,#1493,#1494);
#1214=AXIS2_PLACEMENT_3D('',#1817,#1497,#1498);
#1215=AXIS2_PLACEMENT_3D('',#1819,#1500,#1501);
#1216=AXIS2_PLACEMENT_3D('',#1821,#1503,#1504);
#1217=AXIS2_PLACEMENT_3D('',#1822,#1505,#1506);
#1218=AXIS2_PLACEMENT_3D('',#1823,#1507,#1508);
#1219=AXIS2_PLACEMENT_3D('',#1824,#1509,#1510);
#1220=AXIS2_PLACEMENT_3D('',#1827,#1513,#1514);
#1221=AXIS2_PLACEMENT_3D('',#1829,#1516,#1517);
#1222=AXIS2_PLACEMENT_3D('',#1831,#1519,#1520);
#1223=AXIS2_PLACEMENT_3D('',#1832,#1521,#1522);
#1224=AXIS2_PLACEMENT_3D('',#1833,#1523,#1524);
#1225=AXIS2_PLACEMENT_3D('',#1834,#1525,#1526);
#1226=AXIS2_PLACEMENT_3D('',#1837,#1529,#1530);
#1227=AXIS2_PLACEMENT_3D('',#1839,#1532,#1533);
#1228=AXIS2_PLACEMENT_3D('',#1841,#1535,#1536);
#1229=DIRECTION('',(0.,0.,1.));
#1230=DIRECTION('',(1.,0.,0.));
#1231=DIRECTION('',(0.,0.,-1.));
#1232=DIRECTION('',(1.,0.,0.));
#1233=DIRECTION('',(0.,-1.,0.));
#1234=DIRECTION('',(1.,0.,0.));
#1235=DIRECTION('',(0.,-1.,0.));
#1236=DIRECTION('',(-1.,0.,0.));
#1237=DIRECTION('',(1.,0.,0.));
#1238=DIRECTION('',(0.,1.,0.));
#1239=DIRECTION('',(-1.,0.,0.));
#1240=DIRECTION('',(0.,1.,0.));
#1241=DIRECTION('',(0.,0.,1.));
#1242=DIRECTION('',(1.,0.,0.));
#1243=DIRECTION('',(1.,0.,0.));
#1244=DIRECTION('',(0.,-1.,0.));
#1245=DIRECTION('',(-1.,0.,0.));
#1246=DIRECTION('',(0.,-1.,0.));
#1247=DIRECTION('',(-1.80700362080917E-16,1.,0.));
#1248=DIRECTION('',(-1.,1.13503024567462E-16,0.));
#1249=DIRECTION('',(0.,1.,0.));
#1250=DIRECTION('',(1.,0.,0.));
#1251=DIRECTION('',(0.,1.,0.));
#1252=DIRECTION('',(1.,0.,0.));
#1253=DIRECTION('',(0.,1.,0.));
#1254=DIRECTION('',(1.,0.,0.));
#1255=DIRECTION('',(0.,0.,1.));
#1256=DIRECTION('',(1.,0.,0.));
#1257=DIRECTION('',(1.,0.,0.));
#1258=DIRECTION('',(0.,1.,0.));
#1259=DIRECTION('',(1.,0.,0.));
#1260=DIRECTION('',(0.,1.,0.));
#1261=DIRECTION('',(1.,0.,0.));
#1262=DIRECTION('',(0.,1.,0.));
#1263=DIRECTION('',(-1.,1.13503024567462E-16,0.));
#1264=DIRECTION('',(0.,1.,0.));
#1265=DIRECTION('',(0.,-1.,0.));
#1266=DIRECTION('',(1.,0.,0.));
#1267=DIRECTION('',(0.,-1.,0.));
#1268=DIRECTION('',(-1.,0.,0.));
#1269=DIRECTION('',(-1.13503024567462E-16,-1.,0.));
#1270=DIRECTION('',(1.,-1.13503024567462E-16,0.));
#1271=DIRECTION('',(0.,0.,-1.));
#1272=DIRECTION('',(1.,-1.13503024567462E-16,0.));
#1273=DIRECTION('',(0.,0.,-1.));
#1274=DIRECTION('',(1.,-1.13503024567462E-16,0.));
#1275=DIRECTION('',(-1.13503024567462E-16,-1.,0.));
#1276=DIRECTION('',(1.,0.,0.));
#1277=DIRECTION('',(-1.13503024567462E-16,-1.,0.));
#1278=DIRECTION('',(1.,0.,0.));
#1279=DIRECTION('',(-1.13503024567462E-16,-1.,0.));
#1280=DIRECTION('',(1.,-1.13503024567462E-16,0.));
#1281=DIRECTION('',(-1.,1.13503024567462E-16,0.));
#1282=DIRECTION('',(-1.13503024567462E-16,-1.,0.));
#1283=DIRECTION('',(1.,-1.13503024567462E-16,0.));
#1284=DIRECTION('',(0.,0.,-1.));
#1285=DIRECTION('',(-1.,1.13503024567462E-16,0.));
#1286=DIRECTION('',(0.,0.,-1.));
#1287=DIRECTION('',(-1.13503024567462E-16,-1.,0.));
#1288=DIRECTION('',(1.,-1.13503024567462E-16,0.));
#1289=DIRECTION('',(0.,0.,-1.));
#1290=DIRECTION('',(-1.13503024567462E-16,-1.,0.));
#1291=DIRECTION('',(1.,-1.13503024567462E-16,0.));
#1292=DIRECTION('',(-1.,1.13503024567462E-16,0.));
#1293=DIRECTION('',(-1.13503024567462E-16,-1.,0.));
#1294=DIRECTION('',(1.,-1.13503024567462E-16,0.));
#1295=DIRECTION('',(1.,-1.13503024567462E-16,0.));
#1296=DIRECTION('',(0.,0.,-1.));
#1297=DIRECTION('',(1.,-1.13503024567462E-16,0.));
#1298=DIRECTION('',(0.,0.,-1.));
#1299=DIRECTION('',(-1.13503024567462E-16,-1.,0.));
#1300=DIRECTION('',(1.,-1.13503024567462E-16,0.));
#1301=DIRECTION('',(-1.13503024567462E-16,-1.,0.));
#1302=DIRECTION('',(1.,-1.13503024567462E-16,0.));
#1303=DIRECTION('',(-1.13503024567462E-16,-1.,0.));
#1304=DIRECTION('',(1.,0.,0.));
#1305=DIRECTION('',(-1.13503024567462E-16,-1.,0.));
#1306=DIRECTION('',(1.,0.,0.));
#1307=DIRECTION('',(-1.,1.13503024567462E-16,0.));
#1308=DIRECTION('',(0.,0.,-1.));
#1309=DIRECTION('',(0.,0.,-1.));
#1310=DIRECTION('',(1.,0.,0.));
#1311=DIRECTION('',(0.,0.,-1.));
#1312=DIRECTION('',(0.,1.,0.));
#1313=DIRECTION('',(0.,0.,-1.));
#1314=DIRECTION('',(0.,1.,0.));
#1315=DIRECTION('',(0.,0.,-1.));
#1316=DIRECTION('',(0.,-1.,0.));
#1317=DIRECTION('',(0.,0.,-1.));
#1318=DIRECTION('',(-1.13503024567462E-16,-1.,0.));
#1319=DIRECTION('',(1.,-1.13503024567462E-16,0.));
#1320=DIRECTION('',(-1.,1.13503024567462E-16,0.));
#1321=DIRECTION('',(-1.13503024567462E-16,-1.,0.));
#1322=DIRECTION('',(1.,-1.13503024567462E-16,0.));
#1323=DIRECTION('',(0.,0.,-1.));
#1324=DIRECTION('',(1.,0.,0.));
#1325=DIRECTION('',(0.,0.,-1.));
#1326=DIRECTION('',(0.,1.,0.));
#1327=DIRECTION('',(0.,0.,-1.));
#1328=DIRECTION('',(0.,1.,0.));
#1329=DIRECTION('',(0.,0.,-1.));
#1330=DIRECTION('',(0.,-1.,0.));
#1331=DIRECTION('',(0.,0.,-1.));
#1332=DIRECTION('',(0.,0.,-1.));
#1333=DIRECTION('',(1.,0.,0.));
#1334=DIRECTION('',(-1.,1.13503024567462E-16,0.));
#1335=DIRECTION('',(0.,1.,0.));
#1336=DIRECTION('',(0.,0.,1.));
#1337=DIRECTION('',(0.,0.,1.));
#1338=DIRECTION('',(-1.,0.,0.));
#1339=DIRECTION('',(0.,0.,1.));
#1340=DIRECTION('',(-1.,0.,0.));
#1341=DIRECTION('',(0.,1.,0.));
#1342=DIRECTION('',(0.,0.,1.));
#1343=DIRECTION('',(0.,1.,0.));
#1344=DIRECTION('',(0.,0.,1.));
#1345=DIRECTION('',(0.,0.,-1.));
#1346=DIRECTION('',(1.,0.,0.));
#1347=DIRECTION('',(0.,0.,-1.));
#1348=DIRECTION('',(1.,0.,0.));
#1349=DIRECTION('',(0.,1.,0.));
#1350=DIRECTION('',(-1.0842021724855E-16,0.,1.));
#1351=DIRECTION('',(0.,1.,0.));
#1352=DIRECTION('',(0.,0.,1.));
#1353=DIRECTION('',(0.,1.,0.));
#1354=DIRECTION('',(0.,0.,1.));
#1355=DIRECTION('',(-1.,0.,0.));
#1356=DIRECTION('',(0.,0.,1.));
#1357=DIRECTION('',(-1.,0.,0.));
#1358=DIRECTION('',(0.,0.,1.));
#1359=DIRECTION('',(0.,1.,0.));
#1360=DIRECTION('',(0.,0.,1.));
#1361=DIRECTION('',(0.,1.,0.));
#1362=DIRECTION('',(0.,0.,1.));
#1363=DIRECTION('',(0.,1.,0.));
#1364=DIRECTION('',(-1.0842021724855E-16,0.,1.));
#1365=DIRECTION('',(0.,1.,0.));
#1366=DIRECTION('',(0.,0.,1.));
#1367=DIRECTION('',(1.,0.,0.));
#1368=DIRECTION('',(0.,0.,-1.));
#1369=DIRECTION('',(1.,0.,0.));
#1370=DIRECTION('',(1.,0.,0.));
#1371=DIRECTION('',(1.,0.,0.));
#1372=DIRECTION('',(0.,0.,-1.));
#1373=DIRECTION('',(0.,0.,1.));
#1374=DIRECTION('',(0.,0.,1.));
#1375=DIRECTION('',(0.,-1.,0.));
#1376=DIRECTION('',(0.,0.,-1.));
#1377=DIRECTION('',(0.,0.,1.));
#1378=DIRECTION('',(1.,0.,0.));
#1379=DIRECTION('',(0.,0.,-1.));
#1380=DIRECTION('',(0.,0.,1.));
#1381=DIRECTION('',(0.,-1.,0.));
#1382=DIRECTION('',(0.,0.,-1.));
#1383=DIRECTION('',(-1.13503024567462E-16,-1.,0.));
#1384=DIRECTION('',(1.,-1.13503024567462E-16,0.));
#1385=DIRECTION('',(-1.13503024567462E-16,-1.,0.));
#1386=DIRECTION('',(1.,-1.13503024567462E-16,0.));
#1387=DIRECTION('',(-1.13503024567462E-16,-1.,0.));
#1388=DIRECTION('',(1.,-1.13503024567462E-16,0.));
#1389=DIRECTION('',(-1.13503024567462E-16,-1.,0.));
#1390=DIRECTION('',(1.,-1.13503024567462E-16,0.));
#1391=DIRECTION('',(0.,1.,0.));
#1392=DIRECTION('',(0.,0.,1.));
#1393=DIRECTION('',(0.,1.,0.));
#1394=DIRECTION('',(0.,0.,1.));
#1395=DIRECTION('',(-1.13503024567462E-16,-1.,0.));
#1396=DIRECTION('',(1.,-1.13503024567462E-16,0.));
#1397=DIRECTION('',(-1.13503024567462E-16,-1.,0.));
#1398=DIRECTION('',(1.,-1.13503024567462E-16,0.));
#1399=DIRECTION('',(0.,0.,-1.));
#1400=DIRECTION('',(-1.,0.,0.));
#1401=DIRECTION('',(-0.707106781186548,8.02587583568357E-17,-0.707106781186548));
#1402=DIRECTION('',(-0.707106781186548,8.02587583568357E-17,0.707106781186548));
#1403=DIRECTION('',(0.,0.,1.));
#1404=DIRECTION('',(1.,0.,0.));
#1405=DIRECTION('',(0.,0.,-1.));
#1406=DIRECTION('',(-1.,0.,0.));
#1407=DIRECTION('',(0.,0.,1.));
#1408=DIRECTION('',(1.,0.,0.));
#1409=DIRECTION('',(0.707106781186548,0.,0.707106781186548));
#1410=DIRECTION('',(0.707106781186548,0.,-0.707106781186548));
#1411=DIRECTION('',(0.,1.,0.));
#1412=DIRECTION('',(0.,0.,1.));
#1413=DIRECTION('',(0.,-1.,0.));
#1414=DIRECTION('',(0.,0.,-1.));
#1415=DIRECTION('',(0.,1.,0.));
#1416=DIRECTION('',(0.,0.,1.));
#1417=DIRECTION('',(1.,0.,0.));
#1418=DIRECTION('',(0.,0.,-1.));
#1419=DIRECTION('',(1.,8.67361737988403E-16,0.));
#1420=DIRECTION('',(-8.67361737988403E-16,1.,0.));
#1421=DIRECTION('',(-1.,1.13503024567462E-16,0.));
#1422=DIRECTION('',(-1.13503024567462E-16,-1.,0.));
#1423=DIRECTION('',(-0.707106781186548,8.02587583568357E-17,0.707106781186548));
#1424=DIRECTION('',(-0.707106781186548,8.02587583568357E-17,-0.707106781186548));
#1425=DIRECTION('',(1.,0.,0.));
#1426=DIRECTION('',(0.,0.,-1.));
#1427=DIRECTION('',(0.707106781186548,0.,-0.707106781186548));
#1428=DIRECTION('',(0.707106781186548,0.,0.707106781186548));
#1429=DIRECTION('',(1.,0.,0.));
#1430=DIRECTION('',(0.,0.,-1.));
#1431=DIRECTION('',(1.,0.,0.));
#1432=DIRECTION('',(0.,0.,-1.));
#1433=DIRECTION('',(-1.,1.13503024567462E-16,0.));
#1434=DIRECTION('',(-1.13503024567462E-16,-1.,0.));
#1435=DIRECTION('',(-1.,0.,0.));
#1436=DIRECTION('',(0.,0.,1.));
#1437=DIRECTION('',(0.,0.,1.));
#1438=DIRECTION('',(1.,0.,0.));
#1439=DIRECTION('',(0.,0.,1.));
#1440=DIRECTION('',(1.,0.,0.));
#1441=DIRECTION('',(0.,0.,1.));
#1442=DIRECTION('',(1.,0.,0.));
#1443=DIRECTION('',(0.,0.,1.));
#1444=DIRECTION('',(1.,0.,0.));
#1445=DIRECTION('',(1.,0.,0.));
#1446=DIRECTION('',(0.,0.,-1.));
#1447=DIRECTION('',(-1.,0.,0.));
#1448=DIRECTION('',(0.,0.,1.));
#1449=DIRECTION('',(0.,-1.,0.));
#1450=DIRECTION('',(0.,0.,-1.));
#1451=DIRECTION('',(0.,-1.,0.));
#1452=DIRECTION('',(0.,0.,-1.));
#1453=DIRECTION('',(0.,1.,0.));
#1454=DIRECTION('',(0.,0.,1.));
#1455=DIRECTION('',(0.,1.,0.));
#1456=DIRECTION('',(0.,0.,1.));
#1457=DIRECTION('',(0.,-1.,0.));
#1458=DIRECTION('',(0.,0.,-1.));
#1459=DIRECTION('',(0.,-1.,0.));
#1460=DIRECTION('',(0.,0.,-1.));
#1461=DIRECTION('',(1.,0.,0.));
#1462=DIRECTION('',(0.,0.,1.));
#1463=DIRECTION('',(0.,0.,1.));
#1464=DIRECTION('',(-1.,0.,0.));
#1465=DIRECTION('',(0.,0.,1.));
#1466=DIRECTION('',(0.,0.,1.));
#1467=DIRECTION('',(0.,-1.,0.));
#1468=DIRECTION('',(0.,1.,0.));
#1469=DIRECTION('',(0.,0.,1.));
#1470=DIRECTION('',(-1.,0.,0.));
#1471=DIRECTION('',(0.,0.,1.));
#1472=DIRECTION('',(-1.,0.,0.));
#1473=DIRECTION('',(0.,0.,1.));
#1474=DIRECTION('',(0.,-1.,0.));
#1475=DIRECTION('',(0.,0.,-1.));
#1476=DIRECTION('',(1.,0.,0.));
#1477=DIRECTION('',(1.,0.,0.));
#1478=DIRECTION('',(0.,-1.,0.));
#1479=DIRECTION('',(-1.,0.,0.));
#1480=DIRECTION('',(0.,-1.,0.));
#1481=DIRECTION('',(-1.,0.,0.));
#1482=DIRECTION('',(0.,0.,1.));
#1483=DIRECTION('',(0.,0.,1.));
#1484=DIRECTION('',(0.,0.,1.));
#1485=DIRECTION('',(0.,-1.,0.));
#1486=DIRECTION('',(0.,0.,-1.));
#1487=DIRECTION('',(0.,0.,1.));
#1488=DIRECTION('',(-1.,0.,0.));
#1489=DIRECTION('',(0.,0.,1.));
#1490=DIRECTION('',(0.,0.,1.));
#1491=DIRECTION('',(0.,1.,0.));
#1492=DIRECTION('',(0.,0.,1.));
#1493=DIRECTION('',(-1.,0.,0.));
#1494=DIRECTION('',(0.,0.,1.));
#1495=DIRECTION('',(0.,0.,1.));
#1496=DIRECTION('',(0.,0.,1.));
#1497=DIRECTION('',(0.,1.,0.));
#1498=DIRECTION('',(0.,0.,1.));
#1499=DIRECTION('',(0.,0.,1.));
#1500=DIRECTION('',(-1.,0.,0.));
#1501=DIRECTION('',(0.,0.,1.));
#1502=DIRECTION('',(0.,0.,1.));
#1503=DIRECTION('',(0.,-1.,0.));
#1504=DIRECTION('',(0.,0.,-1.));
#1505=DIRECTION('',(-1.13503024567462E-16,-1.,0.));
#1506=DIRECTION('',(1.,-1.13503024567462E-16,0.));
#1507=DIRECTION('',(-1.13503024567462E-16,-1.,0.));
#1508=DIRECTION('',(1.,-1.13503024567462E-16,0.));
#1509=DIRECTION('',(0.,0.,-1.));
#1510=DIRECTION('',(-1.,0.,0.));
#1511=DIRECTION('',(-1.13503024567462E-16,-1.,0.));
#1512=DIRECTION('',(-1.13503024567462E-16,-1.,0.));
#1513=DIRECTION('',(-1.,1.13503024567462E-16,0.));
#1514=DIRECTION('',(-1.13503024567462E-16,-1.,0.));
#1515=DIRECTION('',(-1.13503024567462E-16,-1.,0.));
#1516=DIRECTION('',(0.,0.,-1.));
#1517=DIRECTION('',(-1.,0.,0.));
#1518=DIRECTION('',(-1.13503024567462E-16,-1.,0.));
#1519=DIRECTION('',(-1.,1.13503024567462E-16,0.));
#1520=DIRECTION('',(-1.13503024567462E-16,-1.,0.));
#1521=DIRECTION('',(-1.13503024567462E-16,-1.,0.));
#1522=DIRECTION('',(1.,-1.13503024567462E-16,0.));
#1523=DIRECTION('',(-1.13503024567462E-16,-1.,0.));
#1524=DIRECTION('',(1.,-1.13503024567462E-16,0.));
#1525=DIRECTION('',(-1.,1.13503024567462E-16,0.));
#1526=DIRECTION('',(-1.13503024567462E-16,-1.,0.));
#1527=DIRECTION('',(-1.13503024567462E-16,-1.,0.));
#1528=DIRECTION('',(-1.13503024567462E-16,-1.,0.));
#1529=DIRECTION('',(0.,0.,-1.));
#1530=DIRECTION('',(-1.,0.,0.));
#1531=DIRECTION('',(-1.13503024567462E-16,-1.,0.));
#1532=DIRECTION('',(-1.,1.13503024567462E-16,0.));
#1533=DIRECTION('',(-1.13503024567462E-16,-1.,0.));
#1534=DIRECTION('',(-1.13503024567462E-16,-1.,0.));
#1535=DIRECTION('',(0.,0.,-1.));
#1536=DIRECTION('',(-1.,0.,0.));
#1537=CARTESIAN_POINT('',(0.,0.,0.));
#1538=CARTESIAN_POINT('',(-0.0250623232226038,-0.0148386782508162,0.06835));
#1539=CARTESIAN_POINT('',(-0.0456293232226038,-0.0191486782508162,0.06835));
#1540=CARTESIAN_POINT('',(-0.0456293232226038,-0.0148986782508162,0.06835));
#1541=CARTESIAN_POINT('',(-0.0456293232226038,-0.0233986782508162,0.06835));
#1542=CARTESIAN_POINT('',(-0.0401293232226038,-0.0148986782508162,0.06835));
#1543=CARTESIAN_POINT('',(-0.0346293232226038,-0.0148986782508162,0.06835));
#1544=CARTESIAN_POINT('',(-0.0346293232226038,-0.0191486782508162,0.06835));
#1545=CARTESIAN_POINT('',(-0.0346293232226038,-0.0233986782508162,0.06835));
#1546=CARTESIAN_POINT('',(-0.0401293232226038,-0.0233986782508162,0.06835));
#1547=CARTESIAN_POINT('',(-0.0250623232226038,-0.0203986782508162,0.06835));
#1548=CARTESIAN_POINT('',(-0.0426293232226038,-0.0203986782508162,0.06835));
#1549=CARTESIAN_POINT('',(-0.0376293232226038,-0.0203986782508162,0.06835));
#1550=CARTESIAN_POINT('',(-0.0376293232226038,-0.0148386782508162,0.06835));
#1551=CARTESIAN_POINT('',(-0.0376293232226038,-0.0178986782508163,0.06835));
#1552=CARTESIAN_POINT('',(-0.0250623232226038,-0.0178986782508163,0.06835));
#1553=CARTESIAN_POINT('',(-0.0426293232226038,-0.0178986782508163,0.06835));
#1554=CARTESIAN_POINT('',(-0.0426293232226038,-0.0148386782508162,0.06835));
#1555=CARTESIAN_POINT('',(-0.0250623232226038,-0.0148386782508162,0.06935));
#1556=CARTESIAN_POINT('',(-0.0401293232226038,-0.0148986782508162,0.06935));
#1557=CARTESIAN_POINT('',(-0.0456293232226038,-0.0148986782508162,0.06935));
#1558=CARTESIAN_POINT('',(-0.0346293232226038,-0.0148986782508162,0.06935));
#1559=CARTESIAN_POINT('',(-0.0456293232226038,-0.0191486782508162,0.06935));
#1560=CARTESIAN_POINT('',(-0.0456293232226038,-0.0233986782508162,0.06935));
#1561=CARTESIAN_POINT('',(-0.0401293232226038,-0.0233986782508162,0.06935));
#1562=CARTESIAN_POINT('',(-0.0346293232226038,-0.0233986782508162,0.06935));
#1563=CARTESIAN_POINT('',(-0.0346293232226038,-0.0191486782508162,0.06935));
#1564=CARTESIAN_POINT('',(0.00550467677739621,-0.0148386782508162,0.06935));
#1565=CARTESIAN_POINT('',(0.0055046767773962,-0.0253386782508162,0.06935));
#1566=CARTESIAN_POINT('',(0.00550467677739621,-0.00433867825081622,0.06935));
#1567=CARTESIAN_POINT('',(-0.0250623232226038,-0.0253386782508162,0.06935));
#1568=CARTESIAN_POINT('',(-0.0556293232226038,-0.0253386782508162,0.06935));
#1569=CARTESIAN_POINT('',(-0.0556293232226038,-0.0148386782508162,0.06935));
#1570=CARTESIAN_POINT('',(-0.0556293232226038,-0.00433867825081622,0.06935));
#1571=CARTESIAN_POINT('',(-0.0250623232226038,-0.00433867825081622,0.06935));
#1572=CARTESIAN_POINT('',(-0.0388123232226038,-0.0148386782508162,0.06935));
#1573=CARTESIAN_POINT('',(-0.0388123232226038,-0.0143386782508162,0.06935));
#1574=CARTESIAN_POINT('',(-0.0388123232226038,-0.0108386782508162,0.06935));
#1575=CARTESIAN_POINT('',(-0.0250623232226038,-0.0143386782508162,0.06935));
#1576=CARTESIAN_POINT('',(-0.0123123232226038,-0.0143386782508162,0.06935));
#1577=CARTESIAN_POINT('',(-0.0123123232226038,-0.0148386782508162,0.06935));
#1578=CARTESIAN_POINT('',(-0.0123123232226038,-0.0108386782508162,0.06935));
#1579=CARTESIAN_POINT('',(-0.0250623232226038,-0.0108386782508162,0.06935));
#1580=CARTESIAN_POINT('',(-0.0250623232226038,-0.0148386782508162,0.07085));
#1581=CARTESIAN_POINT('',(-0.0255623232226038,-0.0143386782508162,0.07085));
#1582=CARTESIAN_POINT('',(-0.0388123232226038,-0.0143386782508162,0.07085));
#1583=CARTESIAN_POINT('',(-0.0123123232226038,-0.0143386782508162,0.07085));
#1584=CARTESIAN_POINT('',(-0.0388123232226038,-0.0125886782508162,0.07085));
#1585=CARTESIAN_POINT('',(-0.0388123232226038,-0.0108386782508162,0.07085));
#1586=CARTESIAN_POINT('',(-0.0255623232226038,-0.0108386782508162,0.07085));
#1587=CARTESIAN_POINT('',(-0.0123123232226038,-0.0108386782508162,0.07085));
#1588=CARTESIAN_POINT('',(-0.0123123232226038,-0.0125886782508162,0.07085));
#1589=CARTESIAN_POINT('',(-0.0250623232226038,-0.00383867825081622,0.07085));
#1590=CARTESIAN_POINT('',(0.00450467677739621,-0.00383867825081622,0.07085));
#1591=CARTESIAN_POINT('',(-0.0546293232226038,-0.00383867825081622,0.07085));
#1592=CARTESIAN_POINT('',(-0.0546293232226038,-0.0268386782508162,0.07085));
#1593=CARTESIAN_POINT('',(-0.0546293232226038,-0.0258386782508162,0.07085));
#1594=CARTESIAN_POINT('',(-0.0250623232226038,-0.0258386782508162,0.07085));
#1595=CARTESIAN_POINT('',(0.00450467677739621,-0.0258386782508162,0.07085));
#1596=CARTESIAN_POINT('',(0.00450467677739621,-0.0148386782508162,0.07085));
#1597=CARTESIAN_POINT('',(-0.0446293232226038,-0.0191486782508162,0.07085));
#1598=CARTESIAN_POINT('',(-0.0446293232226038,-0.0158986782508162,0.07085));
#1599=CARTESIAN_POINT('',(-0.0446293232226038,-0.0223986782508162,0.07085));
#1600=CARTESIAN_POINT('',(-0.0391293232226038,-0.0158986782508162,0.07085));
#1601=CARTESIAN_POINT('',(-0.0356293232226038,-0.0158986782508162,0.07085));
#1602=CARTESIAN_POINT('',(-0.0356293232226038,-0.0191486782508162,0.07085));
#1603=CARTESIAN_POINT('',(-0.0356293232226038,-0.0223986782508163,0.07085));
#1604=CARTESIAN_POINT('',(-0.0401293232226038,-0.0223986782508162,0.07085));
#1605=CARTESIAN_POINT('',(-0.0250623232226038,-0.0268386782508162,0.06935));
#1606=CARTESIAN_POINT('',(-0.0516392276271787,-0.0268386782508162,0.0419718));
#1607=CARTESIAN_POINT('',(-0.0516392276271787,-0.0268386782508162,0.0569718));
#1608=CARTESIAN_POINT('',(-0.0516392276271787,-0.0268386782508162,0.0269718));
#1609=CARTESIAN_POINT('',(-0.0366392276271786,-0.0268386782508162,0.0569718));
#1610=CARTESIAN_POINT('',(-0.0216392276271787,-0.0268386782508162,0.0569718));
#1611=CARTESIAN_POINT('',(-0.0216392276271787,-0.0268386782508162,0.0419718));
#1612=CARTESIAN_POINT('',(-0.0216392276271787,-0.0268386782508162,0.0269718));
#1613=CARTESIAN_POINT('',(-0.0366392276271786,-0.0268386782508162,0.0269718));
#1614=CARTESIAN_POINT('',(-0.0268184233290813,-0.0268386782508162,0.0140688));
#1615=CARTESIAN_POINT('',(-0.0248864233290813,-0.0268386782508162,0.0140688));
#1616=CARTESIAN_POINT('',(-0.0475424233290813,-0.0268386782508162,0.0140688));
#1617=CARTESIAN_POINT('',(-0.0456104233290813,-0.0268386782508162,0.0140688));
#1618=CARTESIAN_POINT('',(-0.0516293232226038,-0.0268386782508162,0.002));
#1619=CARTESIAN_POINT('',(-0.0546293232226038,-0.0268386782508162,0.002));
#1620=CARTESIAN_POINT('',(-0.0516293232226038,-0.0268386782508162,-0.001));
#1621=CARTESIAN_POINT('',(-0.0250623232226038,-0.0268386782508162,-0.001));
#1622=CARTESIAN_POINT('',(0.00150467677739621,-0.0268386782508162,-0.001));
#1623=CARTESIAN_POINT('',(0.00150467677739621,-0.0268386782508162,0.002));
#1624=CARTESIAN_POINT('',(0.00450467677739621,-0.0268386782508162,0.002));
#1625=CARTESIAN_POINT('',(0.00450467677739621,-0.0268386782508162,0.06935));
#1626=CARTESIAN_POINT('',(0.00450467677739621,-0.0268386782508162,0.06985));
#1627=CARTESIAN_POINT('',(-0.0250623232226038,-0.0268386782508162,0.06985));
#1628=CARTESIAN_POINT('',(-0.0546293232226038,-0.0268386782508162,0.06985));
#1629=CARTESIAN_POINT('',(-0.0546293232226038,-0.0268386782508162,-0.002));
#1630=CARTESIAN_POINT('',(-0.0250623232226038,-0.0268386782508162,0.06935));
#1631=CARTESIAN_POINT('',(0.00450467677739621,-0.0268386782508162,0.06935));
#1632=CARTESIAN_POINT('',(0.00450467677739621,-0.0268386782508162,-0.001));
#1633=CARTESIAN_POINT('',(0.00150467677739621,-0.0268386782508162,0.002));
#1634=CARTESIAN_POINT('',(-0.0250623232226038,-0.0268386782508162,-0.001));
#1635=CARTESIAN_POINT('',(-0.0250623232226038,-0.0253386782508162,0.06935));
#1636=CARTESIAN_POINT('',(-0.0250623232226038,-0.0253386782508162,0.0569718));
#1637=CARTESIAN_POINT('',(-0.0516392276271787,-0.0253386782508162,0.0569718));
#1638=CARTESIAN_POINT('',(-0.0216392276271787,-0.0253386782508162,0.0569718));
#1639=CARTESIAN_POINT('',(-0.0516392276271787,-0.0253386782508162,0.06935));
#1640=CARTESIAN_POINT('',(-0.0516392276271787,-0.0253386782508162,0.0269718));
#1641=CARTESIAN_POINT('',(-0.0250623232226038,-0.0253386782508162,0.0269718));
#1642=CARTESIAN_POINT('',(-0.0216392276271787,-0.0253386782508162,0.0269718));
#1643=CARTESIAN_POINT('',(-0.0216392276271787,-0.0253386782508162,0.06935));
#1644=CARTESIAN_POINT('',(-0.0268184233290813,-0.0253386782508162,0.0140688));
#1645=CARTESIAN_POINT('',(-0.0248864233290813,-0.0253386782508162,0.0140688));
#1646=CARTESIAN_POINT('',(-0.0475424233290813,-0.0253386782508162,0.0140688));
#1647=CARTESIAN_POINT('',(-0.0456104233290813,-0.0253386782508162,0.0140688));
#1648=CARTESIAN_POINT('',(-0.0516293232226038,-0.0253386782508162,0.002));
#1649=CARTESIAN_POINT('',(-0.0496293232226038,-0.0253386782508162,0.002));
#1650=CARTESIAN_POINT('',(0.00150467677739621,-0.0253386782508162,0.002));
#1651=CARTESIAN_POINT('',(0.00350467677739621,-0.0253386782508162,0.002));
#1652=CARTESIAN_POINT('',(-0.0250623232226038,-0.0253386782508162,-0.002));
#1653=CARTESIAN_POINT('',(0.0055046767773962,-0.0253386782508162,-0.002));
#1654=CARTESIAN_POINT('',(-0.0556293232226038,-0.0253386782508162,-0.002));
#1655=CARTESIAN_POINT('',(-0.0556293232226038,-0.0253386782508162,0.06935));
#1656=CARTESIAN_POINT('',(0.0055046767773962,-0.0253386782508162,0.06935));
#1657=CARTESIAN_POINT('',(0.00550467677739621,-0.0260886782508163,0.06935));
#1658=CARTESIAN_POINT('',(0.00550467677739621,-0.00358867825081622,-0.002));
#1659=CARTESIAN_POINT('',(0.00550467677739621,-0.00433867825081622,-0.002));
#1660=CARTESIAN_POINT('',(0.00550467677739621,-0.00383867825081622,-0.002));
#1661=CARTESIAN_POINT('',(0.00550467677739621,-0.00383867825081622,0.06935));
#1662=CARTESIAN_POINT('',(0.00550467677739621,-0.00383867825081622,0.06985));
#1663=CARTESIAN_POINT('',(0.00550467677739621,-0.0260886782508163,0.06985));
#1664=CARTESIAN_POINT('',(0.00550467677739621,-0.0258386782508162,0.06985));
#1665=CARTESIAN_POINT('',(0.00550467677739621,-0.0258386782508162,0.06935));
#1666=CARTESIAN_POINT('',(0.00550467677739621,-0.0258386782508162,-0.002));
#1667=CARTESIAN_POINT('',(0.00550467677739621,-0.0260886782508163,-0.002));
#1668=CARTESIAN_POINT('',(0.00550467677739621,-0.00433867825081622,0.06935));
#1669=CARTESIAN_POINT('',(-0.0250623232226038,-0.0268386782508162,0.06935));
#1670=CARTESIAN_POINT('',(-0.0250623232226038,-0.0268386782508162,-0.001));
#1671=CARTESIAN_POINT('',(-0.0546293232226038,-0.0268386782508162,-0.001));
#1672=CARTESIAN_POINT('',(-0.0516293232226038,-0.0268386782508162,0.002));
#1673=CARTESIAN_POINT('',(-0.0546293232226038,-0.0268386782508162,-0.002));
#1674=CARTESIAN_POINT('',(-0.0556293232226038,-0.0260886782508162,0.06935));
#1675=CARTESIAN_POINT('',(-0.0556293232226038,-0.00283867825081622,0.06985));
#1676=CARTESIAN_POINT('',(-0.0556293232226038,-0.0258386782508162,0.06985));
#1677=CARTESIAN_POINT('',(-0.0556293232226038,-0.00383867825081622,0.06985));
#1678=CARTESIAN_POINT('',(-0.0556293232226038,-0.00383867825081622,-0.002));
#1679=CARTESIAN_POINT('',(-0.0556293232226038,-0.00383867825081622,-0.002));
#1680=CARTESIAN_POINT('',(-0.0556293232226038,-0.00358867825081622,-0.002));
#1681=CARTESIAN_POINT('',(-0.0556293232226038,-0.00433867825081622,-0.002));
#1682=CARTESIAN_POINT('',(-0.0556293232226038,-0.00433867825081622,0.06935));
#1683=CARTESIAN_POINT('',(-0.0556293232226038,-0.0260886782508162,-0.002));
#1684=CARTESIAN_POINT('',(-0.0556293232226038,-0.0258386782508162,-0.002));
#1685=CARTESIAN_POINT('',(-0.0556293232226038,-0.0258386782508162,0.07085));
#1686=CARTESIAN_POINT('',(-0.0250623232226038,-0.0148386782508162,-0.002));
#1687=CARTESIAN_POINT('',(-0.0250623232226038,-0.0258386782508162,-0.002));
#1688=CARTESIAN_POINT('',(-0.0250623232226038,-0.00283867825081622,0.07085));
#1689=CARTESIAN_POINT('',(-0.0516392276271787,-0.00283867825081622,0.07085));
#1690=CARTESIAN_POINT('',(-0.0516392276271787,-0.00283867825081622,0.0269718));
#1691=CARTESIAN_POINT('',(-0.0516392276271787,-0.00283867825081622,0.0569718));
#1692=CARTESIAN_POINT('',(-0.0250623232226038,-0.00283867825081622,0.0269718));
#1693=CARTESIAN_POINT('',(-0.0216392276271787,-0.00283867825081622,0.0269718));
#1694=CARTESIAN_POINT('',(-0.0216392276271787,-0.00283867825081622,0.07085));
#1695=CARTESIAN_POINT('',(-0.0216392276271787,-0.00283867825081622,0.0569718));
#1696=CARTESIAN_POINT('',(-0.0250623232226038,-0.00283867825081622,0.0569718));
#1697=CARTESIAN_POINT('',(-0.0268184233290813,-0.00283867825081622,0.0140688));
#1698=CARTESIAN_POINT('',(-0.0268184233290813,-0.00283867825081622,0.0160008));
#1699=CARTESIAN_POINT('',(-0.0475424233290813,-0.00283867825081622,0.0140688));
#1700=CARTESIAN_POINT('',(-0.0475424233290813,-0.00283867825081622,0.0160008));
#1701=CARTESIAN_POINT('',(-0.0546293232226038,-0.00283867825081622,0.07085));
#1702=CARTESIAN_POINT('',(-0.0546293232226038,-0.00283867825081622,-0.001));
#1703=CARTESIAN_POINT('',(-0.0546293232226038,-0.00283867825081622,0.06985));
#1704=CARTESIAN_POINT('',(-0.0250623232226038,-0.00283867825081622,0.06985));
#1705=CARTESIAN_POINT('',(0.00450467677739621,-0.00283867825081622,0.06985));
#1706=CARTESIAN_POINT('',(0.00450467677739621,-0.00283867825081622,0.07085));
#1707=CARTESIAN_POINT('',(0.00450467677739621,-0.00283867825081622,-0.001));
#1708=CARTESIAN_POINT('',(-0.0250623232226038,-0.00283867825081622,-0.001));
#1709=CARTESIAN_POINT('',(0.00150467677739621,-0.00283867825081622,0.002));
#1710=CARTESIAN_POINT('',(0.0015046767773962,-0.00283867825081622,0.004));
#1711=CARTESIAN_POINT('',(-0.0516293232226038,-0.00283867825081622,0.002));
#1712=CARTESIAN_POINT('',(-0.0516293232226038,-0.00283867825081622,0.004));
#1713=CARTESIAN_POINT('',(-0.0250623232226038,-0.00433867825081622,0.06935));
#1714=CARTESIAN_POINT('',(-0.0250623232226038,-0.00433867825081622,0.0269718));
#1715=CARTESIAN_POINT('',(-0.0216392276271787,-0.00433867825081622,0.0269718));
#1716=CARTESIAN_POINT('',(-0.0516392276271787,-0.00433867825081622,0.0269718));
#1717=CARTESIAN_POINT('',(-0.0516392276271787,-0.00433867825081622,0.06935));
#1718=CARTESIAN_POINT('',(-0.0516392276271787,-0.00433867825081622,0.0569718));
#1719=CARTESIAN_POINT('',(-0.0250623232226038,-0.00433867825081622,0.0569718));
#1720=CARTESIAN_POINT('',(-0.0216392276271787,-0.00433867825081622,0.0569718));
#1721=CARTESIAN_POINT('',(-0.0216392276271787,-0.00433867825081622,0.06935));
#1722=CARTESIAN_POINT('',(-0.0268184233290813,-0.00433867825081622,0.0140688));
#1723=CARTESIAN_POINT('',(-0.0268184233290813,-0.00433867825081622,0.0160008));
#1724=CARTESIAN_POINT('',(-0.0475424233290813,-0.00433867825081622,0.0140688));
#1725=CARTESIAN_POINT('',(-0.0475424233290813,-0.00433867825081622,0.0160008));
#1726=CARTESIAN_POINT('',(0.00150467677739621,-0.00433867825081622,0.002));
#1727=CARTESIAN_POINT('',(0.0015046767773962,-0.00433867825081622,0.004));
#1728=CARTESIAN_POINT('',(-0.0516293232226038,-0.00433867825081622,0.002));
#1729=CARTESIAN_POINT('',(-0.0516293232226038,-0.00433867825081622,0.004));
#1730=CARTESIAN_POINT('',(-0.0250623232226038,-0.00433867825081622,-0.002));
#1731=CARTESIAN_POINT('',(-0.0250623232226038,-0.0148386782508162,-0.002));
#1732=CARTESIAN_POINT('',(-0.0250623232226038,-0.00383867825081622,-0.002));
#1733=CARTESIAN_POINT('',(-0.0388123232226038,-0.0125886782508162,0.04255));
#1734=CARTESIAN_POINT('',(-0.0388123232226038,-0.0108386782508162,0.04255));
#1735=CARTESIAN_POINT('',(-0.0388123232226038,-0.0143386782508162,0.04255));
#1736=CARTESIAN_POINT('',(-0.0255623232226038,-0.0143386782508162,0.04255));
#1737=CARTESIAN_POINT('',(-0.0123123232226038,-0.0143386782508162,0.04255));
#1738=CARTESIAN_POINT('',(-0.0123123232226038,-0.0125886782508162,0.04255));
#1739=CARTESIAN_POINT('',(-0.0123123232226038,-0.0108386782508162,0.04255));
#1740=CARTESIAN_POINT('',(-0.0255623232226038,-0.0108386782508162,0.04255));
#1741=CARTESIAN_POINT('',(0.00150467677739621,-0.0253386782508162,0.002));
#1742=CARTESIAN_POINT('',(0.00150467677739621,-0.0258386782508162,0.002));
#1743=CARTESIAN_POINT('',(0.00350467677739621,-0.0258386782508162,0.002));
#1744=CARTESIAN_POINT('',(-0.0516293232226038,-0.0253386782508162,0.002));
#1745=CARTESIAN_POINT('',(-0.0516293232226038,-0.0258386782508162,0.002));
#1746=CARTESIAN_POINT('',(-0.0496293232226038,-0.0258386782508162,0.002));
#1747=CARTESIAN_POINT('',(-0.0516293232226038,-0.00433867825081622,0.002));
#1748=CARTESIAN_POINT('',(0.00150467677739621,-0.00433867825081622,0.002));
#1749=CARTESIAN_POINT('',(0.00150467677739621,-0.0258386782508162,0.002));
#1750=CARTESIAN_POINT('',(-0.0516293232226038,-0.0258386782508162,0.002));
#1751=CARTESIAN_POINT('',(0.00450467677739621,-0.0258386782508162,0.06935));
#1752=CARTESIAN_POINT('',(0.00450467677739621,-0.0258386782508162,-0.001));
#1753=CARTESIAN_POINT('',(0.00450467677739621,-0.0258386782508162,0.06985));
#1754=CARTESIAN_POINT('',(0.00450467677739621,-0.00383867825081622,0.07085));
#1755=CARTESIAN_POINT('',(0.00450467677739621,-0.00383867825081622,0.06985));
#1756=CARTESIAN_POINT('',(0.00450467677739621,-0.00383867825081622,-0.001));
#1757=CARTESIAN_POINT('',(0.00450467677739621,-0.0148386782508162,0.06985));
#1758=CARTESIAN_POINT('',(0.00450467677739621,-0.0258386782508162,0.06985));
#1759=CARTESIAN_POINT('',(0.00450467677739621,-0.00383867825081622,0.06985));
#1760=CARTESIAN_POINT('',(0.00450467677739621,-0.0258386782508162,0.06985));
#1761=CARTESIAN_POINT('',(0.00450467677739621,-0.0258386782508162,0.06985));
#1762=CARTESIAN_POINT('',(-0.0250623232226038,-0.0258386782508162,-0.001));
#1763=CARTESIAN_POINT('',(-0.0546293232226038,-0.0258386782508162,-0.001));
#1764=CARTESIAN_POINT('',(-0.0250623232226038,-0.00383867825081622,-0.001));
#1765=CARTESIAN_POINT('',(-0.0546293232226038,-0.00383867825081622,-0.001));
#1766=CARTESIAN_POINT('',(0.00450467677739621,-0.00383867825081622,0.06985));
#1767=CARTESIAN_POINT('',(0.00450467677739621,-0.00383867825081622,0.06985));
#1768=CARTESIAN_POINT('',(-0.0250623232226038,-0.0258386782508162,0.06985));
#1769=CARTESIAN_POINT('',(-0.0546293232226038,-0.0258386782508162,0.06985));
#1770=CARTESIAN_POINT('',(-0.0546293232226038,-0.0258386782508162,0.06935));
#1771=CARTESIAN_POINT('',(-0.0546293232226038,-0.0258386782508162,0.06985));
#1772=CARTESIAN_POINT('',(-0.0546293232226038,-0.00383867825081622,0.06935));
#1773=CARTESIAN_POINT('',(-0.0546293232226038,-0.00383867825081622,0.06985));
#1774=CARTESIAN_POINT('',(-0.0250623232226038,-0.00383867825081622,0.06985));
#1775=CARTESIAN_POINT('',(-0.0546293232226038,-0.00383867825081622,0.06985));
#1776=CARTESIAN_POINT('',(-0.0546293232226038,-0.0258386782508162,0.06985));
#1777=CARTESIAN_POINT('',(-0.0546293232226038,-0.0258386782508162,0.06985));
#1778=CARTESIAN_POINT('',(-0.0546293232226038,-0.00383867825081622,0.06985));
#1779=CARTESIAN_POINT('',(-0.0546293232226038,-0.00383867825081622,0.06985));
#1780=CARTESIAN_POINT('',(-0.0546293232226038,-0.0260886782508162,0.06985));
#1781=CARTESIAN_POINT('',(-0.0391293232226038,-0.0158986782508162,0.06785));
#1782=CARTESIAN_POINT('',(-0.0250623232226038,-0.0158986782508162,0.06935));
#1783=CARTESIAN_POINT('',(-0.0446293232226038,-0.0158986782508162,0.06935));
#1784=CARTESIAN_POINT('',(-0.0356293232226038,-0.0158986782508162,0.06935));
#1785=CARTESIAN_POINT('',(-0.0356293232226038,-0.0158986782508162,0.06785));
#1786=CARTESIAN_POINT('',(-0.0446293232226038,-0.0158986782508162,0.06785));
#1787=CARTESIAN_POINT('',(-0.0446293232226038,-0.0191486782508162,0.06785));
#1788=CARTESIAN_POINT('',(-0.0446293232226038,-0.0223986782508162,0.06785));
#1789=CARTESIAN_POINT('',(-0.0446293232226038,-0.0223986782508162,0.06935));
#1790=CARTESIAN_POINT('',(-0.0446293232226038,-0.0148386782508162,0.06935));
#1791=CARTESIAN_POINT('',(-0.0401293232226038,-0.0223986782508162,0.06785));
#1792=CARTESIAN_POINT('',(-0.0250623232226038,-0.0223986782508162,0.06935));
#1793=CARTESIAN_POINT('',(-0.0356293232226038,-0.0223986782508162,0.06935));
#1794=CARTESIAN_POINT('',(-0.0356293232226038,-0.0223986782508162,0.06785));
#1795=CARTESIAN_POINT('',(-0.0356293232226038,-0.0191486782508162,0.06785));
#1796=CARTESIAN_POINT('',(-0.0356293232226038,-0.0148386782508162,0.06935));
#1797=CARTESIAN_POINT('',(-0.0250623232226038,-0.0148386782508162,0.06935));
#1798=CARTESIAN_POINT('',(-0.0401293232226038,-0.0178986782508163,0.06935));
#1799=CARTESIAN_POINT('',(-0.0426293232226038,-0.0178986782508163,0.06935));
#1800=CARTESIAN_POINT('',(-0.0376293232226038,-0.0178986782508163,0.06935));
#1801=CARTESIAN_POINT('',(-0.0376293232226038,-0.0191486782508162,0.06935));
#1802=CARTESIAN_POINT('',(-0.0376293232226038,-0.0203986782508162,0.06935));
#1803=CARTESIAN_POINT('',(-0.0401293232226038,-0.0203986782508162,0.06935));
#1804=CARTESIAN_POINT('',(-0.0426293232226038,-0.0203986782508162,0.06935));
#1805=CARTESIAN_POINT('',(-0.0426293232226038,-0.0191486782508162,0.06935));
#1806=CARTESIAN_POINT('',(-0.0456293232226038,-0.0191486782508162,0.06835));
#1807=CARTESIAN_POINT('',(-0.0456293232226038,-0.0148986782508162,0.06835));
#1808=CARTESIAN_POINT('',(-0.0456293232226038,-0.0233986782508162,0.06835));
#1809=CARTESIAN_POINT('',(-0.0401293232226038,-0.0148986782508162,0.06835));
#1810=CARTESIAN_POINT('',(-0.0346293232226038,-0.0148986782508162,0.06835));
#1811=CARTESIAN_POINT('',(-0.0346293232226038,-0.0191486782508162,0.06835));
#1812=CARTESIAN_POINT('',(-0.0346293232226038,-0.0233986782508162,0.06835));
#1813=CARTESIAN_POINT('',(-0.0401293232226038,-0.0233986782508162,0.06835));
#1814=CARTESIAN_POINT('',(-0.0376293232226038,-0.0191486782508162,0.05545));
#1815=CARTESIAN_POINT('',(-0.0376293232226038,-0.0203986782508162,0.05545));
#1816=CARTESIAN_POINT('',(-0.0376293232226038,-0.0178986782508163,0.05545));
#1817=CARTESIAN_POINT('',(-0.0401293232226038,-0.0203986782508162,0.05545));
#1818=CARTESIAN_POINT('',(-0.0426293232226038,-0.0203986782508162,0.05545));
#1819=CARTESIAN_POINT('',(-0.0426293232226038,-0.0191486782508162,0.05545));
#1820=CARTESIAN_POINT('',(-0.0426293232226038,-0.0178986782508163,0.05545));
#1821=CARTESIAN_POINT('',(-0.0401293232226038,-0.0178986782508163,0.05545));
#1822=CARTESIAN_POINT('',(-0.0475424233290813,-0.00183867825081621,0.0140688));
#1823=CARTESIAN_POINT('',(-0.0268184233290813,-0.00183867825081621,0.0140688));
#1824=CARTESIAN_POINT('',(-0.0366392276271786,-0.00183867825081621,0.0569718));
#1825=CARTESIAN_POINT('',(-0.0216392276271787,-0.00183867825081621,0.0569718));
#1826=CARTESIAN_POINT('',(-0.0516392276271787,-0.00183867825081621,0.0569718));
#1827=CARTESIAN_POINT('',(-0.0216392276271787,-0.00183867825081621,0.0419718));
#1828=CARTESIAN_POINT('',(-0.0216392276271787,-0.00183867825081621,0.0269718));
#1829=CARTESIAN_POINT('',(-0.0366392276271786,-0.00183867825081621,0.0269718));
#1830=CARTESIAN_POINT('',(-0.0516392276271787,-0.00183867825081621,0.0269718));
#1831=CARTESIAN_POINT('',(-0.0516392276271787,-0.00183867825081621,0.0419718));
#1832=CARTESIAN_POINT('',(-0.0475424233290813,-0.00183867825081621,0.0140688));
#1833=CARTESIAN_POINT('',(-0.0268184233290813,-0.00183867825081621,0.0140688));
#1834=CARTESIAN_POINT('',(-0.0516392276271787,-0.00183867825081621,0.0419718));
#1835=CARTESIAN_POINT('',(-0.0516392276271787,-0.00183867825081621,0.0569718));
#1836=CARTESIAN_POINT('',(-0.0516392276271787,-0.00183867825081621,0.0269718));
#1837=CARTESIAN_POINT('',(-0.0366392276271786,-0.00183867825081621,0.0269718));
#1838=CARTESIAN_POINT('',(-0.0216392276271787,-0.00183867825081621,0.0269718));
#1839=CARTESIAN_POINT('',(-0.0216392276271787,-0.00183867825081621,0.0419718));
#1840=CARTESIAN_POINT('',(-0.0216392276271787,-0.00183867825081621,0.0569718));
#1841=CARTESIAN_POINT('',(-0.0366392276271786,-0.00183867825081621,0.0569718));
#1842=MECHANICAL_DESIGN_GEOMETRIC_PRESENTATION_REPRESENTATION('',(#1119),
#1843);
#1843=(
GEOMETRIC_REPRESENTATION_CONTEXT(3)
GLOBAL_UNCERTAINTY_ASSIGNED_CONTEXT((#1844))
GLOBAL_UNIT_ASSIGNED_CONTEXT((#1847,#1846,#1845))
REPRESENTATION_CONTEXT('Part 3','TOP_LEVEL_ASSEMBLY_PART')
);
#1844=UNCERTAINTY_MEASURE_WITH_UNIT(LENGTH_MEASURE(1.E-8),#1847,
'DISTANCE_ACCURACY_VALUE','Maximum Tolerance applied to model');
#1845=(
NAMED_UNIT(*)
SI_UNIT($,.STERADIAN.)
SOLID_ANGLE_UNIT()
);
#1846=(
NAMED_UNIT(*)
PLANE_ANGLE_UNIT()
SI_UNIT($,.RADIAN.)
);
#1847=(
LENGTH_UNIT()
NAMED_UNIT(*)
SI_UNIT($,.METRE.)
);
#1848=PRODUCT_DEFINITION_SHAPE('','',#1849);
#1849=PRODUCT_DEFINITION('','',#1851,#1850);
#1850=PRODUCT_DEFINITION_CONTEXT('',#1857,'design');
#1851=PRODUCT_DEFINITION_FORMATION_WITH_SPECIFIED_SOURCE('','',#1853,
 .NOT_KNOWN.);
#1852=PRODUCT_RELATED_PRODUCT_CATEGORY('','',(#1853));
#1853=PRODUCT('Part 3','Part 3','Part 3',(#1855));
#1854=PRODUCT_CATEGORY('','');
#1855=PRODUCT_CONTEXT('',#1857,'mechanical');
#1856=APPLICATION_PROTOCOL_DEFINITION('international standard',
'ap242_managed_model_based_3d_engineering',2020,#1857);
#1857=APPLICATION_CONTEXT('managed model based 3d engineering');
ENDSEC;
END-ISO-10303-21;
